<svg width="100" height="100" viewBox="0 0 100 100" fill="none" xmlns="http://www.w3.org/2000/svg">
<g clip-path="url(#clip0_915_3592)">
<path fill-rule="evenodd" clip-rule="evenodd" d="M44.851 10.298C69.6215 10.298 89.702 30.3785 89.702 55.149C89.702 79.9195 69.6215 100 44.851 100C20.0805 100 0 79.9195 0 55.149C0 30.3785 20.0805 10.298 44.851 10.298Z" fill="#AAD5EE"/>
<path fill-rule="evenodd" clip-rule="evenodd" d="M71.2934 3.99371C67.3872 2.08544 59.5829 -0.668045 51.5542 0.147006C45.2209 0.789951 38.7221 3.40606 34.1361 5.92018C32.4732 6.83301 30.8699 7.85039 29.3358 8.96618C28.4108 9.64068 27.2305 10.4223 26.1888 11.0383C24.817 11.8496 22.8139 13.1341 20.9978 14.6795C19.6907 15.7918 18.4911 17.1802 17.6631 18.2237C17.0188 19.0357 15.8756 20.2459 14.7411 21.386C12.8388 23.2977 9.93577 26.7404 8.75532 30.9041C7.63112 34.8694 8.01311 39.4659 8.49019 42.4781C8.67427 43.6404 9.19303 44.8395 9.35252 45.8347C9.50224 46.7691 9.29633 47.5165 9.3621 48.104C9.89679 52.8808 11.7122 63.8723 17.5142 71.615C20.5527 75.6698 24.7074 80.2845 28.5623 82.6636C30.7593 84.0205 33.1279 85.0773 35.6052 85.8061C37.0748 86.2364 39.0687 86.299 40.4066 86.6451C41.5874 86.9506 42.4677 87.5443 43.293 87.8396C46.9869 89.1612 53.0011 91.1996 58.7206 91.9206C61.1776 92.2303 66.5997 92.238 70.8635 90.4276C74.0814 89.0612 76.7698 86.9141 78.2873 85.5464C78.7201 85.1564 79.0533 84.6222 79.5228 84.2562C80.0216 83.8675 80.6574 83.6496 81.1378 83.3306C83.4904 81.7682 88.186 78.1523 92.3625 71.9136C94.9782 68.0064 97.8742 60.9982 99.0312 56.3857C102.747 41.5693 94.5522 24.7328 94.5522 24.7328C94.5522 24.7328 91.9721 17.4223 86.3906 12.191C83.5115 9.4927 79.4034 7.53331 76.7072 6.43703C75.0558 5.76554 72.9844 4.81981 71.2934 3.99371Z" fill="#F5BCD0"/>
<path fill-rule="evenodd" clip-rule="evenodd" d="M89.702 55.149C89.702 67.828 84.4393 79.2765 75.9812 87.434C74.5635 88.4873 72.8117 89.6004 70.8635 90.4276C66.5997 92.238 61.1776 92.2304 58.7206 91.9206C53.0011 91.1997 46.9869 89.1612 43.293 87.8396C42.4677 87.5443 41.5874 86.9506 40.4066 86.6452C39.0687 86.299 37.0748 86.2364 35.6052 85.8062C33.1279 85.0774 30.7593 84.0205 28.5623 82.6636C24.7074 80.2845 20.5527 75.6699 17.5142 71.615C11.7122 63.8723 9.89679 52.8808 9.3621 48.104C9.29633 47.5165 9.50224 46.7691 9.35252 45.8347C9.19303 44.8395 8.67427 43.6404 8.49019 42.4781C8.01311 39.4659 7.63112 34.8694 8.75532 30.9041C9.40763 28.6033 10.5861 26.5233 11.8309 24.7995C20.0281 15.8856 31.7864 10.298 44.851 10.298C69.6216 10.298 89.702 30.3785 89.702 55.149Z" fill="#9C9EBD"/>
<g clip-path="url(#clip1_915_3592)">
<path d="M18.6383 49.9767C24.2649 48.3622 30.1108 47.3868 35.9642 47.9154C37.285 48.0336 38.6193 48.2503 39.9194 48.5905C44.3521 46.1331 49.3173 44.6984 54.3243 43.9893C59.6773 43.2226 65.1556 43.3785 70.5051 44.0821C72.1375 44.2944 73.7977 44.563 75.4183 44.9102C72.4533 42.7777 69.4883 40.6452 66.5206 38.5042C65.551 37.8028 66.7854 36.4335 67.7495 37.118C71.6728 39.9463 75.5935 42.7661 79.5084 45.5971C80.1445 46.0524 79.7417 46.9053 79.1811 47.1643C74.4375 49.3589 69.7024 51.5507 64.9672 53.7426C63.8884 54.2467 63.3282 52.4845 64.3902 51.9859C68.1112 50.2675 71.821 48.5435 75.5421 46.8252C69.2686 45.2743 62.4921 44.9834 56.1332 45.622C51.3774 46.0989 46.6971 47.3183 42.4123 49.3997C43.9305 50.005 45.3635 50.8068 46.624 51.8525C48.7809 53.6329 50.2396 56.2789 50.1683 59.1095C50.0805 62.4882 47.945 65.5009 45.0732 67.1555C41.9027 68.983 37.8503 69.3224 34.3661 68.2868C31.3367 67.3825 28.5579 65.1046 28.5502 61.7199C28.5435 56.7722 33.6325 52.7237 37.2811 50.2151C37.3882 50.1425 37.4982 50.0783 37.6053 50.0057C31.5041 48.9222 25.0813 50.0496 19.207 51.7361C18.0614 52.0657 17.4843 50.309 18.6299 49.9794L18.6383 49.9767ZM31.8167 57.849C30.8519 59.2701 30.0851 61.066 30.5414 62.7968C31.371 65.9771 35.4991 66.9789 38.3214 66.9968C42.0461 67.027 45.8568 65.3822 47.5922 61.9488C48.7831 59.5926 48.4517 56.9318 46.9344 54.8196C45.35 52.6172 42.7862 51.3354 40.1863 50.5707C39.6678 50.872 39.152 51.1818 38.6445 51.517C36.079 53.1926 33.5455 55.2787 31.8224 57.8378L31.8167 57.849Z" fill="white"/>
</g>
</g>
<defs>
<clipPath id="clip0_915_3592">
<rect width="99.998" height="100" fill="white"/>
</clipPath>
<clipPath id="clip1_915_3592">
<rect width="60.2454" height="24.8289" fill="white" transform="matrix(-0.950048 0.312103 0.312103 0.950048 75.0293 31.4514)"/>
</clipPath>
</defs>
</svg>
