<svg xmlns="http://www.w3.org/2000/svg" xmlns:xlink="http://www.w3.org/1999/xlink">
   <symbol viewBox="0 0 22 12" id="icon-arrow-default" xmlns="http://www.w3.org/2000/svg">
      <path fill-rule="evenodd" clip-rule="evenodd" d="M16.757.697 21.53 5.47a.75.75 0 0 1 0 1.06l-4.773 4.773a.75.75 0 0 1-1.06-1.06l3.492-3.493H1a.75.75 0 1 1 0-1.5h18.19l-3.493-3.493a.75.75 0 1 1 1.06-1.06Z" />
   </symbol>
   <symbol viewBox="0 0 100 100" id="icon-arrow-in-circle" xmlns="http://www.w3.org/2000/svg">
      <g clip-path="url(#aba)">
         <path fill-rule="evenodd" clip-rule="evenodd" d="M44.851 10.298c24.77 0 44.851 20.08 44.851 44.851 0 24.77-20.08 44.851-44.851 44.851C20.081 100 0 79.92 0 55.149c0-24.77 20.08-44.851 44.851-44.851Z" fill="#AAD5EE" />
         <path fill-rule="evenodd" clip-rule="evenodd" d="M71.293 3.994C67.387 2.085 59.583-.668 51.554.147 45.221.79 38.722 3.407 34.136 5.92a44.863 44.863 0 0 0-4.8 3.046 41.88 41.88 0 0 1-3.147 2.072c-1.372.812-3.375 2.096-5.191 3.642-1.307 1.112-2.507 2.5-3.335 3.544-.644.812-1.787 2.022-2.922 3.162-1.902 1.912-4.805 5.354-5.986 9.518-1.124 3.965-.742 8.562-.265 11.574.184 1.162.703 2.361.863 3.357.15.934-.057 1.681.01 2.269.534 4.777 2.35 15.768 8.151 23.511 3.039 4.055 7.193 8.67 11.048 11.049a28.954 28.954 0 0 0 7.043 3.142c1.47.43 3.464.493 4.802.84 1.18.305 2.06.898 2.886 1.194 3.694 1.321 9.708 3.36 15.428 4.08 2.457.31 7.879.318 12.143-1.492 3.217-1.367 5.906-3.514 7.423-4.882.433-.39.766-.924 1.236-1.29.499-.388 1.134-.606 1.615-.925 2.352-1.563 7.048-5.179 11.224-11.417 2.616-3.908 5.512-10.916 6.67-15.528 3.715-14.817-4.48-31.653-4.48-31.653s-2.58-7.31-8.161-12.542c-2.88-2.698-6.988-4.658-9.684-5.754-1.651-.671-3.723-1.617-5.414-2.443Z" fill="#F5BCD0" />
         <path fill-rule="evenodd" clip-rule="evenodd" d="M89.702 55.149c0 12.679-5.263 24.127-13.72 32.285-1.418 1.053-3.17 2.166-5.118 2.994-4.264 1.81-9.686 1.802-12.143 1.493C53 91.2 46.987 89.16 43.293 87.84c-.825-.296-1.706-.89-2.886-1.195-1.338-.346-3.332-.409-4.802-.839a28.954 28.954 0 0 1-7.043-3.142c-3.855-2.38-8.01-6.994-11.048-11.049-5.802-7.743-7.617-18.734-8.152-23.511-.066-.587.14-1.335-.01-2.27-.159-.995-.678-2.194-.862-3.356-.477-3.012-.859-7.609.265-11.574.653-2.3 1.831-4.38 3.076-6.105 8.197-8.913 19.955-14.501 33.02-14.501 24.77 0 44.851 20.08 44.851 44.851Z" fill="#9C9EBD" />
         <g clip-path="url(#abb)">
            <path d="M18.638 49.977c5.627-1.615 11.473-2.59 17.326-2.062a24.18 24.18 0 0 1 3.955.675c4.433-2.457 9.398-3.892 14.405-4.6 5.353-.767 10.832-.611 16.181.092 1.633.212 3.293.481 4.913.828-2.965-2.132-5.93-4.265-8.897-6.406-.97-.701.264-2.07 1.228-1.386 3.924 2.828 7.845 5.648 11.76 8.48.635.454.233 1.307-.328 1.566a75870.25 75870.25 0 0 0-14.214 6.579c-1.079.504-1.639-1.259-.577-1.757 3.721-1.718 7.431-3.442 11.152-5.16-6.273-1.552-13.05-1.843-19.409-1.204-4.756.477-9.436 1.696-13.72 3.778 1.518.605 2.95 1.407 4.211 2.453 2.157 1.78 3.616 4.426 3.544 7.256-.087 3.38-2.223 6.392-5.095 8.047-3.17 1.827-7.223 2.166-10.707 1.13-3.03-.904-5.808-3.181-5.816-6.566-.006-4.948 5.082-8.996 8.731-11.505.107-.073.217-.137.324-.21-6.1-1.083-12.524.045-18.398 1.731-1.146.33-1.723-1.427-.577-1.757l.008-.002Zm13.179 7.872c-.965 1.421-1.732 3.217-1.276 4.948.83 3.18 4.958 4.182 7.78 4.2 3.725.03 7.536-1.615 9.271-5.048 1.191-2.356.86-5.017-.658-7.13-1.584-2.202-4.148-3.484-6.748-4.248-.518.301-1.034.61-1.541.946-2.566 1.676-5.1 3.762-6.823 6.32l-.005.012Z" fill="white" />
         </g>
      </g>
      <defs>
         <clipPath id="aba">
            <path d="M0 0h99.998v100H0z" />
         </clipPath>
         <clipPath id="abb">
            <path transform="scale(-1 1) rotate(18.186 -135.77 -218.67)" d="M0 0h60.245v24.829H0z" />
         </clipPath>
      </defs>
   </symbol>
   <symbol viewBox="0 0 20 11" id="icon-arrow-partly" xmlns="http://www.w3.org/2000/svg">
      <path d="M18.544.603a1.772 1.772 0 0 0-2.5 0l-6.043 6.038L3.96.603a1.769 1.769 0 1 0-2.5 2.5l7.29 7.294a1.772 1.772 0 0 0 2.5 0l7.294-7.29a1.772 1.772 0 0 0 0-2.504Z" />
   </symbol>
   <symbol viewBox="0 0 48 35" id="icon-big-coma" xmlns="http://www.w3.org/2000/svg">
      <path d="m21.67 0 1.316 2.25c-5.12 2.706-8.576 5.12-10.368 7.24-1.17 1.427-1.756 2.78-1.756 4.06 0 1.28.933 2.798 2.798 4.553 1.902 1.756 3.182 3.274 3.84 4.554.475.914.713 1.975.713 3.182 0 2.45-.878 4.553-2.633 6.308-1.755 1.756-3.932 2.634-6.528 2.634-2.56 0-4.718-.933-6.474-2.798C.86 30.08 0 27.667 0 24.74c0-4.535 1.39-8.613 4.17-12.233C7.862 7.753 13.695 3.584 21.67 0Zm24.192 0 1.371 2.414c-5.23 2.743-8.667 5.102-10.313 7.077-1.134 1.39-1.7 2.797-1.7 4.224 0 1.316 1.005 2.889 3.017 4.718 2.816 2.523 4.224 5.01 4.224 7.46s-.896 4.59-2.688 6.419C38.017 34.104 35.933 35 33.519 35c-2.487 0-4.663-.987-6.528-2.962-1.866-2.012-2.798-4.462-2.798-7.351 0-4.536 1.536-8.741 4.608-12.618C32.678 7.095 38.365 3.072 45.862 0Z" />
   </symbol>
   <symbol viewBox="0 0 70 70" id="icon-books" xmlns="http://www.w3.org/2000/svg">
      <g clip-path="url(#aea)">
         <path d="M18.666 15.168V10.5c0-.644-.522-1.167-1.166-1.167H1.167A1.169 1.169 0 0 0 0 10.501v4.667h18.666ZM0 17.501v38.5h18.666V17.5H0Zm14 15.166H4.667A1.167 1.167 0 0 1 3.5 31.501v-9.334c0-.644.522-1.166 1.167-1.166H14c.644 0 1.166.522 1.166 1.166v9.334c0 .644-.522 1.166-1.166 1.166ZM0 63v5.833C0 69.478.522 70 1.167 70H17.5c.644 0 1.166-.522 1.166-1.167V63H0Zm0-4.666h18.666v2.333H0v-2.334Zm21 0h15.166v2.333H21v-2.334ZM36.166 4.668v-3.5c0-.644-.522-1.167-1.166-1.167H22.167C21.522.001 21 .524 21 1.168v3.5h15.166ZM21 12.835h15.166V56H21V12.834ZM21 63v5.833c0 .645.522 1.167 1.167 1.167H35c.644 0 1.166-.522 1.166-1.167V63H21Zm0-55.999h15.166v3.5H21V7ZM38.472 24.16l.624 2.397 19.758-5.269-.625-2.396-19.757 5.268Zm9.748 37.374 19.758-5.269-1.25-4.796-19.76 5.269 1.253 4.796Zm17.918-12.322-6.695-25.667-19.758 5.27L46.38 54.48l19.758-5.268Z" />
         <path d="m37.882 21.903 19.757-5.268-1.675-6.426a1.193 1.193 0 0 0-1.435-.84l-17.5 4.667c-.618.17-.986.803-.829 1.423l1.682 6.444Zm30.685 36.62L48.809 63.79l1.391 5.334c.081.3.278.557.549.712.176.106.377.163.583.163.102 0 .204-.012.303-.035l17.5-4.667c.618-.169.986-.802.829-1.423l-1.397-5.352Z" />
      </g>
      <defs>
         <clipPath id="aea">
            <path d="M0 0h70v70H0z" />
         </clipPath>
      </defs>
   </symbol>
   <symbol viewBox="0 0 192.756 192.756" id="icon-canada-flag" xmlns="http://www.w3.org/2000/svg">
      <g fill-rule="evenodd" clip-rule="evenodd">
         <path fill="#fff" d="M0 0h192.756v192.756H0V0z" />
         <path fill="#cf4044" d="M45.248 140.84V51.917H2.834v88.923h42.414zm144.674 0V51.917H147.65v88.923h42.272zm-93.949-3.906h-3.572v-17.075l-19.171 1.786 3.572-6.834-20.814-15.266 5.525-3.096-5.358-14.598 11.384 2.763 4.214-5.859 14.48 14.456-7.645-27.792 9.098 5.192 8.287-14.956 8.287 14.956 9.263-5.192-7.81 27.792 14.621-14.456 4.24 5.859 11.217-2.763-5.359 14.598 5.693 3.096-20.98 15.266 3.738 6.834-19.195-1.786v17.075h-3.715z" />
      </g>
   </symbol>
   <symbol viewBox="0 0 70 70" id="icon-chat" xmlns="http://www.w3.org/2000/svg">
      <g clip-path="url(#aga)">
         <path d="M70 40.605A29.37 29.37 0 0 0 55.032 14.99a29.544 29.544 0 0 0-4.852-6.38C44.628 3.057 37.246 0 29.395 0 21.543 0 14.16 3.058 8.608 8.61 3.058 14.16 0 21.542 0 29.394c0 4.777 1.168 9.498 3.385 13.7L.923 57.866l14.324-2.386A29.367 29.367 0 0 0 40.605 70a29.43 29.43 0 0 0 13.702-3.385l14.77 2.462-2.462-14.77A29.429 29.429 0 0 0 70 40.605ZM29.395 54.688c-4.323 0-8.59-1.11-12.34-3.212l-.63-.352-10.512 1.752 1.752-10.513-.352-.628a25.302 25.302 0 0 1-3.211-12.34c0-13.947 11.346-25.293 25.293-25.293 13.946 0 25.293 11.346 25.293 25.293 0 13.946-11.347 25.293-25.294 25.293Z" />
         <path d="M41.422 20.66a7.29 7.29 0 0 0-10.31 0l-1.718 1.719-1.718-1.718a7.29 7.29 0 0 0-10.31 10.31l12.028 12.027L41.422 30.97a7.29 7.29 0 0 0 0-10.31Z" />
      </g>
      <defs>
         <clipPath id="aga">
            <path d="M0 0h70v70H0z" />
         </clipPath>
      </defs>
   </symbol>
   <symbol viewBox="0 0 20 20" id="icon-check-in-circle" xmlns="http://www.w3.org/2000/svg">
      <path d="M10 0C4.48622 0 0 4.48622 0 10C0 15.5138 4.48622 20 10 20C15.5138 20 20 15.5138 20 10C20 4.48622 15.5138 0 10 0ZM15.589 7.36842L9.198 13.7093C8.82206 14.0852 8.22055 14.1103 7.81955 13.7343L4.43609 10.6516C4.03509 10.2757 4.01003 9.64912 4.3609 9.24812C4.73684 8.84712 5.36341 8.82206 5.76441 9.198L8.44612 11.6541L14.1604 5.93985C14.5614 5.53885 15.188 5.53885 15.589 5.93985C15.99 6.34085 15.99 6.96742 15.589 7.36842Z" fill="url(#paint0_radial_1014_7532)" />
      <defs>
         <radialGradient id="paint0_radial_1014_7532" cx="0" cy="0" r="1" gradientUnits="userSpaceOnUse" gradientTransform="rotate(45) scale(28.2843 34.8317)">
            <stop offset="0.307288" stop-color="#77B7DB" />
            <stop offset="1" stop-color="#8BCCF1" />
         </radialGradient>
      </defs>
   </symbol>
   <symbol viewBox="0 0 480 483" id="icon-circles-pare" xmlns="http://www.w3.org/2000/svg">
      <path d="M215.119 50.597c118.304 0 214.218 96.496 214.218 215.541s-95.914 215.541-214.218 215.541C96.815 481.679.902 385.183.902 266.138s95.913-215.54 214.217-215.54Z" />
      <path d="m453.502 119.355-.812.394.002.002.005.01.02.043.082.172a163.98 163.98 0 0 1 1.532 3.374 257.295 257.295 0 0 1 4.194 10.145 322.133 322.133 0 0 1 11.53 35.65c7.582 29.187 12.914 67.204 4.054 102.743-5.529 22.179-19.383 55.9-31.86 74.653-19.949 29.982-42.374 47.353-53.588 54.846-.937.626-2.005 1.168-3.157 1.753l-.592.301c-1.352.691-2.782 1.457-4.052 2.453-1.204.944-2.218 2.093-3.158 3.193l-.322.378c-.836.982-1.622 1.905-2.495 2.697-7.245 6.569-20.054 16.857-35.356 23.394-20.248 8.65-46.075 8.624-57.773 7.14-27.325-3.466-56.089-13.271-73.804-19.648-1.474-.531-2.978-1.264-4.638-2.073-.504-.246-1.024-.499-1.561-.756-2.275-1.087-4.808-2.201-7.723-2.96-3-.78-6.661-1.266-10.365-1.757l-1.021-.136c-4.083-.545-8.167-1.132-11.614-2.147a137.546 137.546 0 0 1-33.561-15.067c-18.34-11.389-38.185-33.545-52.742-53.091-27.674-37.158-36.365-89.988-38.927-113.02-.12-1.084-.036-2.288.066-3.732.021-.308.044-.627.065-.958.12-1.84.192-3.949-.183-6.304-.376-2.362-1.154-4.942-1.939-7.544l-.112-.371c-.83-2.755-1.654-5.547-2.085-8.281l-.89.14.89-.14c-2.282-14.501-4.089-36.526 1.25-55.469 5.599-19.873 19.395-36.355 28.482-45.543 5.443-5.504 10.957-11.375 14.082-15.337 3.956-5.016 9.667-11.665 15.872-16.977 8.656-7.41 18.215-13.58 24.773-17.482 5.022-2.988 10.707-6.775 15.166-10.047a214.009 214.009 0 0 1 22.926-14.637c21.932-12.098 52.983-24.666 83.199-27.753 38.274-3.91 75.529 9.306 94.186 18.476 8.123 3.993 18.077 8.566 26.022 11.816 12.908 5.28 32.484 14.686 46.167 27.59 13.29 12.532 23.023 27.573 29.437 39.5a184.03 184.03 0 0 1 7.147 14.814 134.42 134.42 0 0 1 1.755 4.312c.194.503.338.89.434 1.15l.107.294.026.073.006.018.002.004v.001l.017.048.022.046.812-.393Z" />
      <path d="M137.469 398.152c-18.34-11.389-38.185-33.545-52.742-53.091-27.675-37.158-36.365-89.988-38.927-113.02-.12-1.084-.036-2.288.066-3.732.021-.308.044-.627.065-.958.12-1.84.192-3.949-.183-6.304-.376-2.362-1.154-4.942-1.94-7.544l-.11-.371c-.831-2.755-1.655-5.547-2.086-8.281l-.89.14.89-.14c-2.282-14.501-4.089-36.526 1.25-55.469 3.085-10.953 8.665-20.88 14.584-29.136 39.152-42.815 95.295-69.648 157.674-69.648 118.304 0 214.217 96.495 214.217 215.54 0 60.912-25.119 115.913-65.494 155.113-6.754 5.045-15.076 10.359-24.314 14.305-20.248 8.65-46.075 8.624-57.773 7.14-27.325-3.466-56.089-13.271-73.804-19.648-1.474-.531-2.978-1.264-4.637-2.073-.505-.246-1.025-.499-1.562-.756-2.275-1.087-4.808-2.201-7.723-2.96-3-.78-6.661-1.266-10.365-1.757l-1.021-.136c-4.083-.545-8.167-1.132-11.614-2.147a137.546 137.546 0 0 1-33.561-15.067Z" />
   </symbol>
   <symbol viewBox="0 0 20 20" id="icon-close" xmlns="http://www.w3.org/2000/svg">
      <path d="M20 1.571 18.429 0 10 8.429 1.571 0 0 1.571 8.429 10 0 18.429 1.571 20 10 11.571 18.429 20 20 18.429 11.571 10 20 1.571Z" />
   </symbol>
   <symbol viewBox="0 0 70 70" id="icon-consulting" xmlns="http://www.w3.org/2000/svg">
      <path d="M63.438 53.878H42.153c-.58 0-1.15.154-1.651.449-.391.178-1.273.867-1.718.83h-7.568c-1.125-.199-2.087-1.398-3.37-1.279H6.563a2.194 2.194 0 0 0-2.187 2.188 5.47 5.47 0 0 0 5.469 5.468h50.312a5.47 5.47 0 0 0 5.469-5.468 2.194 2.194 0 0 0-2.188-2.188ZM19.195 35.919h12.633a1.098 1.098 0 0 0 1.094-1.094V22.028a13.726 13.726 0 1 0-13.727 13.89Zm-7.593-6.054a8.095 8.095 0 0 1 3.907-4.26 5.837 5.837 0 0 1-2.03-5.682c1.54-6.882 11.449-5.75 11.546 1.165a5.835 5.835 0 0 1-2.155 4.528 8.2 8.2 0 0 1 4.515 6.987 1.096 1.096 0 0 1-2.191.066c-.395-6.433-9.292-7.898-11.588-1.943a1.09 1.09 0 0 1-2.004-.86Z" />
      <path d="M19.195 24.73a3.642 3.642 0 0 0 0-7.285 3.642 3.642 0 0 0 0 7.285Zm31.61 8.422a3.643 3.643 0 0 0 0-7.285 3.642 3.642 0 0 0 0 7.285Z" />
      <path d="M37.078 17.981v12.633c.02 12.765 16.046 18.508 24.172 8.892 7.579-8.717 1.145-22.709-10.446-22.618H38.172a1.097 1.097 0 0 0-1.094 1.093Zm6.14 20.316a8.067 8.067 0 0 1 3.912-4.27 5.815 5.815 0 0 1-2.046-5.66c1.517-6.902 11.452-5.785 11.55 1.142a5.818 5.818 0 0 1-2.143 4.518 8.095 8.095 0 0 1 3.907 4.26 1.09 1.09 0 0 1-2.01.849 6.019 6.019 0 0 0-11.158.004 1.09 1.09 0 0 1-2.011-.843Z" />
      <path d="M59.927 43.64c-7.426 5.524-19.011 2.71-23.155-5.534H19.064A15.621 15.621 0 0 1 7.908 33.37a16.5 16.5 0 0 1-1.346-1.553v19.874h21.285a6.768 6.768 0 0 1 3.675 1.28h6.956a6.702 6.702 0 0 1 3.675-1.28h21.285V40.27a15.169 15.169 0 0 1-3.511 3.37ZM32.603 12.57c3.43-.598 6.962.1 9.907 1.96a1.094 1.094 0 0 0 1.167-1.85A16.244 16.244 0 0 0 35 10.172c-1.208.15-3.819-.3-3.669 1.518a1.094 1.094 0 0 0 1.272.882Z" />
   </symbol>
   <symbol viewBox="0 0 34 36" id="icon-diploma" xmlns="http://www.w3.org/2000/svg">
      <path d="M33.926 25c0 1.512-.7 2.85-1.775 3.725a4.785 4.785 0 0 1-3.05 1.087 4.856 4.856 0 0 1-3.05-1.087 4.815 4.815 0 0 1 3.05-8.538A4.817 4.817 0 0 1 33.926 25ZM29.1 32.063c-1.058 0-2.096-.266-3.05-.723v4.16l3.05-2.163 3.05 2.163v-4.155a7.063 7.063 0 0 1-3.05.718Z" />
      <path d="M27.725.5H4.888A4.815 4.815 0 0 0 .075 5.313v25.375A4.813 4.813 0 0 0 4.888 35.5H23.8v-5.85a7.04 7.04 0 0 1-1.762-4.649A7.07 7.07 0 0 1 29.1 17.94a7.03 7.03 0 0 1 3.438.895V5.313A4.813 4.813 0 0 0 27.725.5Zm-9.62 26.7H7.268a1.125 1.125 0 0 1 0-2.25h10.837a1.125 1.125 0 0 1 0 2.25Zm2.876-8.075H7.268a1.125 1.125 0 0 1 0-2.25H20.98a1.125 1.125 0 0 1 .001 2.25Zm4.374-8.08H7.273a1.125 1.125 0 0 1 0-2.25h18.08a1.125 1.125 0 0 1 .002 2.25Z" />
   </symbol>
   <symbol viewBox="0 0 60 60" id="icon-family" xmlns="http://www.w3.org/2000/svg">
      <path d="m19.05 41.047.881-.99a10.553 10.553 0 0 1 .042-6.416A12.288 12.288 0 0 1 4.67 30.788 12.284 12.284 0 0 0 0 40.428v17.579c0 .97.787 1.758 1.758 1.758H16.24a5.23 5.23 0 0 1-.303-1.758v-8.79c0-3.013 1.106-5.916 3.113-8.17Zm-4.988-9.407a8.789 8.789 0 1 0 0-17.578 8.789 8.789 0 0 0 0 17.578Zm41.27-.852a12.286 12.286 0 0 1-15.305 2.852c.687 2.096.687 4.356.042 6.416l.882.99a12.278 12.278 0 0 1 3.112 8.172v8.789a5.23 5.23 0 0 1-.302 1.758h14.482a1.76 1.76 0 0 0 1.758-1.758V40.429c0-3.902-1.826-7.386-4.67-9.641Zm-9.395.852a8.789 8.789 0 1 0 0-17.578 8.789 8.789 0 0 0 0 17.578ZM30 47.46c-3.38 0-6.393-1.597-8.324-4.077a8.75 8.75 0 0 0-2.223 5.835v8.789c0 .97.788 1.758 1.758 1.758h17.578a1.76 1.76 0 0 0 1.758-1.758v-8.789a8.75 8.75 0 0 0-2.223-5.835A10.533 10.533 0 0 1 30 47.46Z" />
      <path d="M30 43.944a7.031 7.031 0 1 0 0-14.062 7.031 7.031 0 0 0 0 14.062Zm-5.002-29.766a29.435 29.435 0 0 0 4.08 3.139 1.758 1.758 0 0 0 1.843 0 29.435 29.435 0 0 0 4.08-3.139c2.903-2.682 4.374-5.289 4.374-7.749 0-5.587-5.556-8.21-9.375-5.106-3.828-3.11-9.375-.466-9.375 5.106 0 2.46 1.471 5.067 4.373 7.75Z" />
   </symbol>
   <symbol viewBox="0 0 36 28" id="icon-hat" xmlns="http://www.w3.org/2000/svg">
      <path d="m19.16.486 15.196 8.83a.89.89 0 0 1 0 1.54l-15.197 8.83a3.003 3.003 0 0 1-3.018 0L.944 10.856a.89.89 0 0 1 0-1.54L16.141.486a3.009 3.009 0 0 1 3.018 0Z" />
      <path d="m19.16.486 15.196 8.83a.89.89 0 0 1 0 1.54l-15.197 8.83a3.003 3.003 0 0 1-3.018 0L.944 10.856a.89.89 0 0 1 0-1.54L16.141.486a3.009 3.009 0 0 1 3.018 0Z" />
      <path d="m34.35 10.863-5.162 3-10.025 5.825a3.039 3.039 0 0 1-3.025 0L6.113 13.863l-5.175-3a.902.902 0 0 1 0-1.55l15.2-8.826a3.039 3.039 0 0 1 3.025 0L34.35 9.312c.6.35.6 1.2 0 1.55Z" />
      <path d="M20.105 21.309a4.943 4.943 0 0 1-2.455.657 4.937 4.937 0 0 1-2.445-.651l-9.093-5.284v4.694c0 1.05.55 2.012 1.463 2.537l6.337 3.663a7.502 7.502 0 0 0 7.463 0l6.35-3.663a2.94 2.94 0 0 0 1.462-2.537v-4.694l-9.082 5.278Zm14.521 1.075V12.87l-2.252 1.308v8.204a2.002 2.002 0 1 0 3.126 1.655 2 2 0 0 0-.874-1.654Z" />
   </symbol>
   <symbol viewBox="0 0 70 70" id="icon-head" xmlns="http://www.w3.org/2000/svg">
      <path d="M44.961 31.575a19.506 19.506 0 0 0-2.812-9.598 16.626 16.626 0 0 0-3.216-3.656 27.376 27.376 0 0 0-9.818-5.111 29.356 29.356 0 0 0-.125 7.674 22.188 22.188 0 0 1 10.293 4.441c.196.161.375.339.558.5.075.053.143.115.203.184a21.72 21.72 0 0 1 4.885 6.875c.001-.414.011-.854.032-1.309Zm3.198-10.95a18.967 18.967 0 0 1 3.16-3.703 30.36 30.36 0 0 0-5.085-8.774 30.465 30.465 0 0 0-5.034 8.864 18.099 18.099 0 0 1 5.008 7.724 19.02 19.02 0 0 1 1.95-4.111Z" />
      <path d="M37.694 27.258c-5.069-4.162-12.231-4.41-15.105-4.317.476 2.849 2.125 9.828 7.174 13.976 5.048 4.15 12.23 4.414 15.105 4.317-.477-2.849-2.118-9.828-7.174-13.977Zm24.963 9.663c5.07-4.166 6.703-11.137 7.174-13.982a29.27 29.27 0 0 0-5.115.286 20.499 20.499 0 0 0-9.986 4.025 8.291 8.291 0 0 0-.384.325c-.035.04-.073.08-.113.116a22.554 22.554 0 0 0-6.275 11.514c0 .026-.01.054-.017.08-.177.75-.302 1.414-.387 1.944 2.849.105 9.996-.121 15.103-4.308Z" />
      <path d="M1.781 42.767A7.252 7.252 0 0 1 .75 42.17a5.425 5.425 0 0 1-.75-.61c.006-.184.204-.65 1.156-1.809a50.461 50.461 0 0 0 5.732-9.29 3.719 3.719 0 0 0 .48-1.689 4.375 4.375 0 0 0-1.825-3.125c-.506-.463-.982-.901-1.038-1.309a2.25 2.25 0 0 1 .195-.854 29.3 29.3 0 0 1 .675-1.588 18.26 18.26 0 0 0 1.216-3.294l.125-.532a31.259 31.259 0 0 1 1.019-3.694 21.436 21.436 0 0 1 4.485-7.329c2.391-2.527 6.16-4.321 11.205-5.321A81.27 81.27 0 0 1 35.151.039c7.074-.342 13.144 1.772 19.691 6.897a19.612 19.612 0 0 1 4.575 4.989 29.046 29.046 0 0 0-6.05 3.325 32.45 32.45 0 0 0-6.25-9.875A1.25 1.25 0 0 0 46.225 5a1.125 1.125 0 0 0-.901.381 32.571 32.571 0 0 0-6.175 9.933 30.627 30.627 0 0 0-10.777-4.875 1.25 1.25 0 0 0-1.467.937 30.875 30.875 0 0 0-.475 9.174 29.153 29.153 0 0 0-5.406-.016 1.25 1.25 0 0 0-1.104 1.345c.035.447.989 11.01 8.25 16.971 5.197 4.267 12.076 4.906 15.731 4.906.875 0 1.561-.036 2-.069.1.035.205.056.311.063a1.18 1.18 0 0 0 .343-.063 27.1 27.1 0 0 0 1.864.06 32.256 32.256 0 0 0 6.241-.606c-.174.335-.337.669-.481 1a23.673 23.673 0 0 0-1.833 12.275 44.566 44.566 0 0 0 1.573 7.834c.411 1.344.93 2.652 1.551 3.912.285.567.609 1.112.969 1.634l.084.125L28.17 70c-.828-2.965-3.145-6.363-4.17-7.5-1.026-1.137-1.5-2.5-3.5-2s-6.95 2.315-10.592 3.19a2.214 2.214 0 0 1-2.574-1.664 4.97 4.97 0 0 1-.294-2.23c.032-.262.093-.522.15-.783a5.471 5.471 0 0 0 .109-2.66 4.142 4.142 0 0 0-2.315-2.557l-.259-.148c.135-.273.296-.532.481-.773a1.25 1.25 0 0 0-.234-1.781c-.3-.22-1.007-.75-1.525-1.168.063-.108.127-.229.188-.337.196-.344.42-.744.639-1.206a4.686 4.686 0 0 0 .333-2.798c-.3-1.525-1.76-2.272-2.825-2.817Z" />
      <path d="M52.458 25.93c.016-.019.034-.036.051-.054l.015-.016.027-.027c.198-.184.394-.353.607-.522a21.86 21.86 0 0 1 10.275-4.402 29.23 29.23 0 0 0-.125-7.699 27.469 27.469 0 0 0-9.729 5.031 16.874 16.874 0 0 0-3.316 3.733 19.448 19.448 0 0 0-2.804 9.611c.02.455.031.902.032 1.337a21.53 21.53 0 0 1 4.967-6.992Z" />
   </symbol>
   <symbol viewBox="0 0 70 70" id="icon-heart-in-hand" xmlns="http://www.w3.org/2000/svg">
      <g clip-path="url(#apa)">
         <path d="M50.112 7.991c-1.877-1.767-4.28-2.616-6.702-2.616a10.687 10.687 0 0 0-7.529 3.128L35 9.385l-.882-.882a10.69 10.69 0 0 0-7.53-3.128c-2.422 0-4.824.849-6.7 2.616-4.13 3.887-4.203 10.387-.222 14.369L35 37.693 50.333 22.36c3.982-3.982 3.908-10.482-.22-14.369ZM29.625 64.626l-.011-15.193c0-7.338-3.759-11.64-8.737-13.26-1.39-.42-2.634-1.525-3.792-2.683-2.103-2.19-4.352-5.187-7.265-5.15l-.002-.01c-.95.012-1.9.355-2.724 1.179-1.932 1.932-1.152 4.883.514 6.55l5.412 5.411a2.693 2.693 0 0 1 0 3.809l-7.316-7.316c-1.271-1.272-2.135-2.99-2.371-4.715-.293-2.15.366-4.153 1.855-5.643A6.513 6.513 0 0 1 9.167 25.7l-1.093-4.414C7.99 4.906 0 6.908 0 10.761v28.755c0 1.786.692 3.47 1.949 4.74 13.38 13.502 11.517 9.152 11.517 20.37h16.16ZM70 10.761c0-3.853-7.99-5.854-8.073 10.526L60.834 25.7a6.512 6.512 0 0 1 3.978 1.905c1.49 1.49 2.149 3.494 1.855 5.643-.235 1.725-1.099 3.444-2.37 4.715L56.98 45.28a2.694 2.694 0 0 1 0-3.809l5.412-5.411c1.666-1.666 2.447-4.618.515-6.55-.824-.823-1.774-1.167-2.724-1.18l-.003.012c-2.913-.037-5.161 2.959-7.265 5.15-1.158 1.157-2.402 2.262-3.792 2.683-4.978 1.62-8.736 5.922-8.736 13.259l-.012 15.193h16.16c0-11.217-1.863-6.867 11.517-20.37A6.697 6.697 0 0 0 70 39.515V10.761Z" />
      </g>
      <defs>
         <clipPath id="apa">
            <path d="M0 0h70v70H0z" />
         </clipPath>
      </defs>
   </symbol>
   <symbol viewBox="0 0 70 70" id="icon-help" xmlns="http://www.w3.org/2000/svg">
      <g clip-path="url(#aqa)">
         <path d="M16.982 25.686a4.757 4.757 0 1 0 0-9.514 4.757 4.757 0 0 0 0 9.514ZM46.08 9.513a4.757 4.757 0 1 0 0-9.513 4.757 4.757 0 0 0 0 9.513Z" />
         <path d="M64.022 51.913H61.85c.05-.017.1-.033.15-.053a2.644 2.644 0 0 0 1.438-3.453L58.84 37.252l-.348-8.31a2.629 2.629 0 0 0-.214-.93l-3.433-15.396a3.213 3.213 0 0 0-3.836-2.437l-5.593 1.247a3.213 3.213 0 0 0-2.437 3.836l.5 2.244 2.176-3.432-2.27 6.55-7.487 3.22a2.116 2.116 0 0 0 1.672 3.886l8.343-3.588a2.116 2.116 0 0 0 1.163-1.25l2.577-7.432-.828 8.038c-.17 1.65-1.568 2.082-2.18 2.345l-1.192.512.699 3.132-2.292 6.248c-.066.18-.112.365-.138.554l-1.738 12.77a2.645 2.645 0 0 0 1.754 2.854h-2.22a.976.976 0 0 0-.975.976v8.068H29.972a2.642 2.642 0 0 0 1.178-2.57l-1.738-12.77a2.644 2.644 0 0 0-2.166-2.248l-4.951-.863v-4.491l-6.236-5.082 7.074 3.44a2.109 2.109 0 0 0 1.706.064l8.44-3.354a2.116 2.116 0 0 0-1.562-3.932l-7.573 3.01-6.234-3.033 4.36.982a3.213 3.213 0 0 0-3.189-2.816h-5.73a3.213 3.213 0 0 0-3.213 3.213v16.486h.002l-.342 8.199L5.2 66.348a2.644 2.644 0 1 0 4.89 2.015l4.774-11.587a2.66 2.66 0 0 0 .197-.897l.367-8.775c.002-.037 0-.073 0-.11h2.18c.378.155.023.068 6.824 1.253L25.91 59.1a2.636 2.636 0 0 0 1.178 1.857H17.065a.976.976 0 0 0-.976.976v7.092c0 .539.437.976.976.976h46.957a.976.976 0 0 0 .976-.976V52.889a.976.976 0 0 0-.976-.976Zm-18.555 0a2.642 2.642 0 0 0 1.758-2.142l1.7-12.485 2.58-7.034 1.733-.387.338 8.073c.013.309.08.612.197.897l4.774 11.587c.3.73.891 1.252 1.583 1.49H45.467Z" />
      </g>
      <defs>
         <clipPath id="aqa">
            <path d="M0 0h70v70H0z" />
         </clipPath>
      </defs>
   </symbol>
   <symbol viewBox="0 0 20 20" id="icon-info" xmlns="http://www.w3.org/2000/svg">
      <path d="M10 0C4.473 0 0 4.473 0 10s4.473 10 10 10 10-4.473 10-10S15.527 0 10 0Zm1.027 13.97c0 .316-.46.631-1.027.631-.592 0-1.013-.316-1.013-.631V8.954c0-.368.42-.618 1.013-.618.566 0 1.027.25 1.027.618v5.016ZM10 7.125c-.605 0-1.08-.448-1.08-.948 0-.5.475-.934 1.08-.934.593 0 1.066.434 1.066.934s-.474.948-1.066.948Z" />
   </symbol>
   <symbol viewBox="0 0 24 24" id="icon-instagram" xmlns="http://www.w3.org/2000/svg">
      <g clip-path="url(#asa)">
         <path d="M1.5 1.633C-.386 3.593 0 5.673 0 11.995c0 5.25-.916 10.513 3.878 11.752 1.497.385 14.76.385 16.256-.002 1.996-.515 3.62-2.134 3.842-4.957.03-.394.03-13.185-.001-13.587-.236-3.007-2.087-4.74-4.526-5.09-.56-.082-.671-.106-3.54-.11C5.738.004 3.508-.449 1.5 1.632Z" />
         <path d="M11.998 3.14c-3.631 0-7.08-.324-8.396 3.056-.544 1.396-.465 3.21-.465 5.805 0 2.278-.073 4.42.465 5.804 1.314 3.382 4.79 3.058 8.394 3.058 3.477 0 7.062.362 8.395-3.058.545-1.41.465-3.196.465-5.804 0-3.462.19-5.697-1.488-7.375-1.7-1.7-4-1.487-7.374-1.487h.004Zm-.794 1.596c7.574-.012 8.538-.854 8.006 10.843-.19 4.137-3.34 3.683-7.211 3.683-7.06 0-7.263-.202-7.263-7.265 0-7.145.56-7.257 6.468-7.263v.002Zm5.524 1.471a1.063 1.063 0 1 0 0 2.127 1.063 1.063 0 0 0 0-2.127Zm-4.73 1.243a4.55 4.55 0 1 0 .001 9.102 4.55 4.55 0 0 0-.001-9.102Zm0 1.597c3.905 0 3.91 5.908 0 5.908-3.904 0-3.91-5.908 0-5.908Z" />
      </g>
      <defs>
         <clipPath id="asa">
            <path d="M0 0h24v24H0z" />
         </clipPath>
      </defs>
   </symbol>
   <symbol viewBox="0 0 27 27" id="icon-item" xmlns="http://www.w3.org/2000/svg">
      <g clip-path="url(#ata)" fill-rule="evenodd" clip-rule="evenodd">
         <path d="M12.11 2.78c6.688 0 12.11 5.422 12.11 12.11S18.797 27 12.11 27 0 21.578 0 14.89 5.422 2.78 12.11 2.78Z" fill="#8AC6E8" />
         <path d="M19.25 1.078C18.194.563 16.087-.18 13.92.04c-1.71.173-3.465.88-4.703 1.558-.449.247-.882.522-1.296.823-.25.182-.569.393-.85.56a10.3 10.3 0 0 0-1.401.982c-.353.3-.677.676-.9.957-.175.22-.483.546-.79.854-.513.516-1.297 1.446-1.616 2.57-.303 1.07-.2 2.312-.071 3.125.05.314.19.638.232.906.04.253-.015.454.003.613.144 1.29.635 4.258 2.201 6.348.82 1.095 1.942 2.34 2.983 2.983a7.821 7.821 0 0 0 1.902.849c.396.116.935.133 1.296.226.319.083.556.243.78.323.997.357 2.62.907 4.165 1.102.663.083 2.127.085 3.278-.404.87-.368 1.595-.948 2.005-1.317.117-.106.207-.25.333-.349.135-.105.307-.164.436-.25.636-.422 1.903-1.398 3.031-3.082.706-1.055 1.488-2.948 1.8-4.193 1.004-4-1.209-8.546-1.209-8.546s-.696-1.974-2.203-3.386c-.778-.729-1.887-1.258-2.615-1.554a25.479 25.479 0 0 1-1.462-.66Z" fill="#F6A2BC" />
         <path d="M24.22 14.89a12.07 12.07 0 0 1-3.705 8.717 6.838 6.838 0 0 1-1.382.808c-1.15.49-2.615.487-3.278.404-1.545-.195-3.168-.745-4.166-1.102-.223-.08-.46-.24-.779-.323-.361-.093-.9-.11-1.296-.226a7.821 7.821 0 0 1-1.902-.849c-1.04-.642-2.163-1.888-2.983-2.983-1.567-2.09-2.057-5.058-2.201-6.348-.018-.159.038-.36-.003-.613-.043-.268-.183-.592-.232-.906-.13-.813-.232-2.054.071-3.125.176-.621.494-1.183.83-1.648A12.077 12.077 0 0 1 12.11 2.78c6.688 0 12.11 5.422 12.11 12.11Z" fill="#7776A2" />
      </g>
      <defs>
         <clipPath id="ata">
            <path d="M0 0h27v27H0z" />
         </clipPath>
      </defs>
   </symbol>
   <symbol viewBox="0 0 66 62" id="icon-laptop" xmlns="http://www.w3.org/2000/svg">
      <path d="M64.677 52.651H4.015c-.806 0-1.394.744-1.238 1.535.774 3.92 4.458 6.89 8.887 6.89h45.364c4.428 0 8.113-2.97 8.887-6.89.156-.791-.432-1.535-1.239-1.535ZM38.73 57.892h-8.768a1.029 1.029 0 1 1 0-2.059h8.768a1.029 1.029 0 1 1 0 2.06Zm8.129-37.575-.474.278h7.906v24.84h-39.89V29.17a46.472 46.472 0 0 1-3.376-.216 4.72 4.72 0 0 1-1.78-.536v22.174h50.204v-32.53a2.632 2.632 0 0 0-2.636-2.625H46.581l.988 1.215c.443.577.618 1.287.494 1.977-.154.751-.587 1.348-1.204 1.688Z" />
      <path d="M11.22 26.905c8.04.772 15.792-.391 23.255-3.49a2.617 2.617 0 0 0 1.595-2.8l-1.194-7.946-11.004 6.268c-.803.464-1.73.71-2.666.71a5.69 5.69 0 0 1-1.174-.133L7.67 16.744l1.194 7.958a2.635 2.635 0 0 0 2.357 2.203Z" />
      <path d="m22.856 17.15 12.475-7.116.783.147 3.216 4.497-.048.029a.38.38 0 0 0-.165.473l2.213 5.487a.397.397 0 0 0 .237.226c.041.01.083.021.124.021a.46.46 0 0 0 .195-.052l3.964-2.336a.364.364 0 0 0 .185-.258.394.394 0 0 0-.072-.319l-3.716-4.601a.384.384 0 0 0-.495-.093l-.64.376-3.502-4.897 2.769-1.58c.748-.426.58-1.551-.262-1.74l-19.684-4.41a3.324 3.324 0 0 0-2.374.357L.537 11.356c-.749.427-.58 1.552.261 1.74l19.685 4.41c.808.18 1.654.054 2.373-.357Z" />
   </symbol>
   <symbol viewBox="0 0 360 480" id="icon-leaf-1" xmlns="http://www.w3.org/2000/svg">
      <g clip-path="url(#ava)">
         <path d="m195.96 214.924-.158-.048c-7.451-4.183-8.275-14.108-8.172-22.273.16-12.449.336-25.325 3.048-37.907 3.063-14.09 9.152-25.742 17.615-33.686l.685-.625.812.453c1.703.932 3.174 2.426 4.27 4.295 1.615-5.59 5.824-10.983 11.97-15.171 2.931-2.008 6.086-3.715 9.138-5.368 4.75-2.571 9.232-5.022 13.073-8.48 1.523-1.376 2.963-2.95 4.326-4.462 1.875-2.046 3.808-4.19 6.055-5.948 6.165-4.903 13.941-6.71 21.465-8.45 2.117-.5 4.226-.972 6.28-1.548 8.16-2.208 18.598-7.116 21.801-17.93l2.499.6c-1.978 10.212-.44 20.906 1.073 31.217.685 4.686 1.382 9.52 1.782 14.291 2.508 31.429-9.451 63.345-32.001 85.372-23.618 23.053-56.346 32.924-85.427 25.796l-.158-.049.024-.079Zm13.391-91.364c-7.72 7.597-13.267 18.522-16.132 31.692-2.657 12.31-2.819 25.047-2.998 37.374-.102 7.415.57 16.34 6.69 19.88 28.186 6.85 59.916-2.782 82.833-25.157 22.012-21.5 33.674-52.642 31.217-83.306-.371-4.675-1.076-9.483-1.752-14.108-1.184-8.015-2.382-16.266-1.964-24.42-4.113 5.827-10.963 10.143-20.197 12.653-2.107.56-4.224 1.059-6.376 1.576-7.246 1.682-14.743 3.431-20.446 7.958-2.101 1.659-3.882 3.59-5.765 5.662-1.431 1.548-2.888 3.176-4.496 4.64-4.054 3.681-8.882 6.314-13.563 8.848-2.991 1.643-6.103 3.306-8.922 5.233-5.673 3.872-11.693 10.639-11.594 18.059.191.78.282 1.79.303 2.749l-2.567.273a17.24 17.24 0 0 1-.317-2.984c-.573-2.718-2.039-5.163-3.97-6.569l.016-.053Zm-62.313 149.908a1.326 1.326 0 0 1-.7-.534c-.388-.611-.231-1.399.38-1.787 18.639-12.097 45.854-14.697 72.812-6.958l2.282.649c22.105 6.353 47.169 13.592 70.344 12.108a1.286 1.286 0 0 1 1.361 1.2 1.286 1.286 0 0 1-1.201 1.361c-23.619 1.52-48.902-5.759-71.218-12.177l-2.281-.649c-26.239-7.545-52.672-5.049-70.718 6.625-.327.216-.744.26-1.087.154l.026.008Z" />
         <path d="M228.172 296.219c-10.088-3.123-18.926-9.351-27.454-15.369-8.51-5.982-16.515-11.636-25.629-14.457a42.755 42.755 0 0 0-5.566-1.319l-2.092-.33 1.246-1.693c14.354-19.513 41.892-28.19 64.915-20.514 11.447 3.861 21.082 11.058 30.389 18.009 9.502 7.069 18.402 13.75 28.551 16.488l2.93.791-2.618 1.557c-19.761 11.806-39.189 22.071-59.673 18.125a45.831 45.831 0 0 1-5.033-1.27l.034-.018Zm-52.316-32.302c9.508 2.944 18.063 8.969 26.352 14.826 8.386 5.915 17.03 12.026 26.723 15.027 1.58.489 3.185.899 4.77 1.188 18.741 3.608 36.922-5.426 55.36-16.315-9.445-3.241-17.795-9.463-26.614-16.032-9.173-6.823-18.64-13.91-29.674-17.615-21.226-7.235-46.753.449-60.741 17.939 1.271.278 2.551.617 3.816 1.008l.008-.026Zm59.228 107.785a1.294 1.294 0 0 1-.886-1.054c-2.844-19.064-13.008-37.047-27.872-49.355-14.838-12.3-34.411-18.908-53.669-18.145-10.317.414-23.474 4.221-26.515 13.67-.212.685-1.015 1.042-1.613.829-.684-.212-1.04-.929-.828-1.613 3.459-10.706 17.172-15.004 28.857-15.457 19.894-.768 40.092 6.062 55.417 18.744 15.326 12.682 25.826 31.259 28.761 50.958a1.289 1.289 0 0 1-1.085 1.454c-.208.022-.383.026-.567-.031Z" />
         <path d="m236.986 377.399-1.666-2.45c-7.007-10.279-17.622-18.04-29.843-21.823a55.128 55.128 0 0 0-13.404-2.389c-1.79-.092-3.612-.079-5.4-.084-3.262 0-6.637-.006-9.963-.545-6.161-.983-11.177-3.893-13.673-8.043-2.505-4.123-2.529-8.893-2.568-13.523-.018-2.459-.02-4.971-.419-7.317-1.28-7.612-7.188-14.262-14.721-16.594a23.811 23.811 0 0 0-2.744-.647l-2.835-.445 2.211-1.827c12.964-10.736 32.753-15.548 49.271-11.936 16.797 3.642 32.423 16.099 40.773 32.481 7.813 15.321 9.826 33.897 5.696 52.275l-.636 2.892-.079-.025Zm-30.769-26.757c11.826 3.661 22.177 10.878 29.491 20.444 3.195-16.848 1.071-33.669-6.05-47.679-8.005-15.727-22.931-27.65-39.027-31.132-14.896-3.255-32.594.675-44.957 9.75 8.599 2.431 15.409 10.081 16.852 18.754.421 2.555.443 5.188.463 7.735.027 4.482.048 8.702 2.172 12.189 2.099 3.478 5.834 5.212 8.573 6.06 1.054.326 2.184.589 3.313.765 3.133.509 6.255.494 9.57.51 1.848-.005 3.689.016 5.54.098 4.723.221 9.424 1.071 14.06 2.506Zm-47.567-92.773a1.263 1.263 0 0 1-.891-1.315c2.324-35.851-2.164-79.439-12.663-122.723-.163-.686.258-1.393.943-1.556a1.294 1.294 0 0 1 1.555.944c6.107 25.212 15.87 74.792 12.741 123.497a1.27 1.27 0 0 1-1.379 1.19c-.105-.033-.192-.031-.298-.063l-.008.026Z" />
         <path d="m159.323 237.238.375-1.212-1.344-.041c-.047-7.865-5.401-14.718-10.063-19.798-.84-.924-1.714-1.83-2.58-2.762-4.632-4.897-9.415-9.957-11.908-16.357-4.632-11.796-.45-24.934 3.815-36.284 4.305-11.483 8.735-23.274 5.58-34.526l-2.438-8.721 4.779 7.685c2.393 3.83 4.431 7.318 6.341 10.565 3.911 6.666 7.278 12.384 12.032 18.474 6.986 8.946 14.126 19.728 13.875 32.005-.173 8.951-4.315 17.108-8.332 24.956-3.966 7.778-8.067 15.802-8.518 24.812l-1.231-.034-.375 1.211-.008.027Zm-12.544-105.022c.565 10.017-3.262 20.234-6.718 29.439-4.116 10.964-8.153 23.54-3.836 34.488 2.317 5.942 6.922 10.831 11.384 15.532.866.932 1.741 1.838 2.607 2.77 3.474 3.788 7.299 8.494 9.309 13.936 1.612-6.514 4.676-12.493 7.664-18.322 4.049-7.954 7.882-15.485 8.042-23.834.233-11.474-6.618-21.792-13.343-30.368-4.861-6.21-8.283-12.032-12.23-18.767-.932-1.558-1.874-3.177-2.879-4.874Zm-19.132 175.918a1.3 1.3 0 0 1-.916-1.236c.452-37.729-11.254-75.528-32.99-106.387a1.306 1.306 0 0 1 .328-1.804 1.306 1.306 0 0 1 1.804.328c22.032 31.297 33.916 69.641 33.441 107.912a1.29 1.29 0 0 1-1.316 1.267 1.638 1.638 0 0 1-.359-.054l.008-.026Z" />
         <path d="m125.089 268.665-1.783-.956c-10.669-5.814-22.327-13.003-25.242-24.844-1.147-4.685-.772-9.533-.375-14.173.158-2.001.34-4.08.358-6.095.204-10.357-3.113-20.62-9.284-28.938l-4.714-6.309 6.463 4.484c22.744 15.758 36.371 45.116 34.682 74.814l-.113 2.043.008-.026Zm-30.303-70.313c3.936 7.424 5.992 15.796 5.825 24.259-.042 2.094-.206 4.209-.38 6.262-.379 4.674-.73 9.068.314 13.345 2.522 10.22 12.132 16.658 22.159 22.216.802-25.527-9.87-50.537-27.926-66.055l.008-.027Zm21.391 155.877a206.015 206.015 0 0 1-2.679-7.382c-3.21-5.669-9.114-10.932-18.008-16.139-1.343-.791-2.72-1.564-4.071-2.328-8.441-4.807-17.182-9.764-22.54-18.004-6.215-9.573-6.503-21.323-6.791-32.698l-.086-3.173c-.167-5.333-2.713-11-5.177-16.467-3.041-6.772-5.917-13.147-4.605-19.062l.073-.237.126-.22c.11-.169.185-.318.26-.468.523-1.224 1.452-1.052 1.741-.962.738.228.889.766 1.248 2.031l.348 1.205c1.916 6.77 8.31 12.039 19.498 16.081 1.143.411 2.26.814 3.436 1.208 7.733 2.711 15.756 5.512 21.091 11.869 6.696 8.019 6.981 18.844 7.259 29.321.042 1.543.092 3.06.151 4.55.548 13.331 3.402 27.608 8.449 42.447a24.688 24.688 0 0 1 2.792 7.763l-2.462.681-.053-.016ZM54.609 243.844c.488 4.018 2.485 8.476 4.573 13.105 2.565 5.701 5.212 11.601 5.39 17.457l.087 3.173c.28 11.026.543 22.393 6.37 31.355 5.024 7.733 13.465 12.54 21.667 17.186 1.377.772 2.746 1.572 4.089 2.362 6.059 3.55 10.802 7.155 14.319 10.899-3.696-12.488-5.814-24.573-6.277-35.945-.05-1.516-.1-3.033-.134-4.602-.268-10.041-.552-20.404-6.684-27.729-4.861-5.834-12.55-8.503-19.94-11.109-1.143-.411-2.32-.805-3.463-1.216-10.486-3.795-17.046-8.712-20.023-14.944l.026.008Z" />
         <path d="M116.941 355.678a1.268 1.268 0 0 1-.894-1.028c-1.912-11.444-9.43-20.353-17.387-29.801-3.526-4.18-7.151-8.506-10.23-13.01-5.017-7.383-8.333-16.347-11.545-24.99-4.017-10.798-7.821-20.981-14.545-28.258-5.777-6.234-7.715-12-9.288-16.615-.27-.805-.522-1.576-.809-2.328-.25-.684.118-1.407.775-1.665.684-.251 1.407.118 1.665.775.279.779.557 1.558.82 2.389 1.572 4.615 3.325 9.862 8.736 15.694 7.072 7.644 11.143 18.545 15.068 29.083 3.166 8.514 6.451 17.295 11.28 24.447 2.99 4.419 6.58 8.676 10.061 12.813 7.831 9.294 15.913 18.897 17.927 31.037.129.704-.363 1.36-1.066 1.488-.209.022-.41.018-.594-.039l.026.008Z" />
         <path d="M124.874 446.312a1.294 1.294 0 0 1-.894-1.027c-7.725-44.879-13.549-88.534-.298-129.286 13.62-41.85 45.507-74.177 76.343-105.444 8.493-8.599 17.249-17.491 25.465-26.407 38.221-41.507 65.299-82.915 82.717-126.59.264-.669 1.017-.956 1.667-.725a1.29 1.29 0 0 1 .725 1.667c-17.542 43.984-44.78 85.63-83.223 127.387-8.223 8.942-17.014 17.852-25.515 26.477-30.624 31.044-62.289 63.123-75.738 104.419-13.079 40.199-7.289 83.498.394 128.046a1.272 1.272 0 0 1-1.067 1.488c-.217.049-.41.018-.594-.039l.018.034Z" />
      </g>
      <defs>
         <clipPath id="ava">
            <path transform="rotate(17.202 63.101 417.197)" d="M0 0h243.88v426.742H0z" />
         </clipPath>
      </defs>
   </symbol>
   <symbol viewBox="0 0 1640 894" id="icon-leaf-pair" xmlns="http://www.w3.org/2000/svg">
      <g clip-path="url(#awa)">
         <path d="m163.242 628.925.158-.049c7.451-4.183 8.275-14.108 8.172-22.273-.16-12.449-.336-25.325-3.048-37.907-3.063-14.09-9.152-25.742-17.615-33.686l-.684-.625-.813.454c-1.703.931-3.174 2.425-4.269 4.294-1.616-5.59-5.825-10.983-11.971-15.171-2.931-2.008-6.086-3.715-9.138-5.368-4.75-2.57-9.232-5.022-13.073-8.48-1.523-1.375-2.963-2.95-4.326-4.462-1.874-2.046-3.808-4.19-6.055-5.947-6.165-4.904-13.94-6.711-21.464-8.451-2.118-.499-4.227-.972-6.281-1.548-8.16-2.208-18.598-7.116-21.801-17.93l-2.499.601c1.978 10.211.44 20.905-1.073 31.216-.685 4.686-1.382 9.52-1.781 14.291-2.508 31.43 9.45 63.345 32 85.372 23.618 23.053 56.346 32.924 85.428 25.797l.158-.049-.025-.079Zm-13.391-91.365c7.72 7.597 13.267 18.522 16.132 31.692 2.657 12.31 2.819 25.047 2.998 37.374.102 7.415-.57 16.34-6.69 19.88-28.186 6.85-59.916-2.782-82.833-25.157-22.012-21.5-33.673-52.642-31.217-83.305.371-4.676 1.077-9.483 1.752-14.109 1.184-8.015 2.382-16.266 1.965-24.42 4.113 5.827 10.962 10.143 20.196 12.653 2.107.56 4.224 1.059 6.376 1.576 7.246 1.682 14.743 3.431 20.446 7.958 2.101 1.659 3.882 3.59 5.765 5.662 1.431 1.548 2.888 3.176 4.496 4.641 4.054 3.68 8.882 6.313 13.563 8.847 2.991 1.643 6.103 3.306 8.922 5.233 5.673 3.873 11.693 10.639 11.595 18.059-.192.78-.283 1.79-.304 2.749l2.567.273a17.24 17.24 0 0 0 .317-2.984c.573-2.718 2.039-5.163 3.97-6.569l-.016-.053Zm62.313 149.908c.289-.089.52-.276.7-.534.388-.611.231-1.399-.38-1.787-18.639-12.097-45.854-14.697-72.812-6.958l-2.282.649c-22.105 6.353-47.169 13.592-70.344 12.108a1.285 1.285 0 0 0-1.36 1.2 1.286 1.286 0 0 0 1.2 1.361c23.62 1.52 48.902-5.759 71.218-12.177l2.282-.649c26.239-7.545 52.671-5.049 70.717 6.625.327.216.745.26 1.087.154l-.026.008Z" />
         <path d="M131.03 710.219c10.088-3.123 18.926-9.351 27.454-15.369 8.51-5.982 16.515-11.636 25.629-14.457a42.755 42.755 0 0 1 5.566-1.319l2.092-.33-1.246-1.693c-14.354-19.513-41.892-28.19-64.915-20.514-11.447 3.861-21.082 11.058-30.39 18.009-9.5 7.069-18.4 13.75-28.55 16.488l-2.93.791 2.618 1.557c19.761 11.806 39.189 22.071 59.673 18.125a45.831 45.831 0 0 0 5.033-1.27l-.034-.018Zm52.316-32.302c-9.508 2.944-18.063 8.969-26.352 14.826-8.386 5.915-17.03 12.026-26.723 15.027-1.58.489-3.185.899-4.769 1.188-18.742 3.608-36.923-5.426-55.36-16.315 9.445-3.241 17.794-9.463 26.613-16.032 9.173-6.823 18.64-13.91 29.674-17.615 21.226-7.235 46.754.449 60.741 17.939a46.891 46.891 0 0 0-3.816 1.008l-.008-.026Zm-59.228 107.785c.448-.139.814-.541.886-1.054 2.844-19.064 13.008-37.047 27.872-49.355 14.838-12.3 34.411-18.908 53.669-18.145 10.317.414 23.474 4.221 26.515 13.67.212.685 1.015 1.043 1.613.829.685-.212 1.04-.929.828-1.613-3.458-10.706-17.172-15.004-28.857-15.457-19.894-.768-40.091 6.062-55.417 18.744-15.326 12.682-25.825 31.259-28.761 50.958a1.29 1.29 0 0 0 1.085 1.454c.209.022.383.026.567-.031Z" />
         <path d="m122.216 791.399 1.666-2.45c7.007-10.279 17.622-18.039 29.843-21.823a55.128 55.128 0 0 1 13.404-2.389c1.79-.092 3.612-.079 5.4-.084 3.262 0 6.637-.006 9.963-.544 6.161-.984 11.177-3.894 13.673-8.044 2.505-4.123 2.529-8.893 2.568-13.523.018-2.459.02-4.971.419-7.317 1.28-7.612 7.188-14.262 14.721-16.594a23.811 23.811 0 0 1 2.744-.647l2.835-.445-2.211-1.827c-12.964-10.735-32.753-15.548-49.271-11.936-16.797 3.642-32.423 16.099-40.773 32.481-7.813 15.321-9.826 33.898-5.695 52.275l.635 2.892.079-.025Zm30.769-26.757c-11.826 3.661-22.177 10.878-29.491 20.444-3.195-16.848-1.071-33.669 6.05-47.679 8.005-15.727 22.931-27.65 39.027-31.132 14.896-3.255 32.594.675 44.957 9.75-8.599 2.431-15.409 10.081-16.852 18.754-.421 2.555-.443 5.188-.463 7.735-.027 4.482-.048 8.702-2.172 12.189-2.099 3.478-5.834 5.212-8.573 6.06a23.81 23.81 0 0 1-3.313.766c-3.133.508-6.255.493-9.57.509-1.848-.005-3.689.016-5.54.098-4.723.221-9.424 1.071-14.06 2.506Zm47.567-92.773c.553-.171.939-.695.892-1.315-2.325-35.851 2.163-79.439 12.662-122.723.163-.686-.257-1.392-.943-1.555-.685-.163-1.392.257-1.555.943-6.107 25.212-15.87 74.792-12.741 123.498a1.27 1.27 0 0 0 1.379 1.189c.105-.032.192-.031.298-.063l.008.026Z" />
         <path d="m199.879 651.238-.375-1.212 1.344-.041c.047-7.865 5.402-14.718 10.063-19.798.84-.924 1.714-1.83 2.58-2.762 4.632-4.897 9.416-9.957 11.908-16.357 4.632-11.796.45-24.933-3.815-36.284-4.305-11.483-8.735-23.274-5.579-34.526l2.437-8.721-4.779 7.685c-2.393 3.83-4.431 7.318-6.341 10.565-3.911 6.666-7.278 12.384-12.032 18.474-6.986 8.946-14.125 19.729-13.875 32.005.173 8.952 4.315 17.108 8.332 24.956 3.967 7.778 8.067 15.802 8.519 24.812l1.23-.034.375 1.211.008.027Zm12.544-105.022c-.565 10.017 3.262 20.234 6.718 29.44 4.116 10.964 8.153 23.539 3.836 34.487-2.317 5.942-6.922 10.831-11.384 15.532-.866.932-1.74 1.838-2.606 2.77-3.475 3.788-7.3 8.494-9.309 13.936-1.613-6.514-4.676-12.493-7.664-18.322-4.05-7.954-7.883-15.484-8.043-23.834-.233-11.474 6.618-21.792 13.343-30.368 4.861-6.21 8.283-12.032 12.23-18.767.932-1.558 1.874-3.177 2.879-4.874Zm19.132 175.918c.527-.163.921-.66.916-1.236-.452-37.729 11.254-75.528 32.989-106.387a1.305 1.305 0 0 0-.327-1.803 1.305 1.305 0 0 0-1.804.327c-22.032 31.297-33.916 69.642-33.441 107.912a1.29 1.29 0 0 0 1.316 1.267c.114-.007.254-.021.359-.054l-.008-.026Z" />
         <path d="m234.113 682.665 1.783-.956c10.669-5.814 22.327-13.003 25.242-24.844 1.147-4.685.772-9.534.375-14.173-.158-2.001-.34-4.08-.357-6.095-.205-10.357 3.112-20.62 9.283-28.938l4.714-6.309-6.463 4.483c-22.744 15.758-36.371 45.117-34.681 74.815l.113 2.043-.009-.026Zm30.303-70.313c-3.936 7.424-5.991 15.796-5.825 24.259.042 2.094.206 4.208.38 6.262.379 4.674.729 9.068-.313 13.345-2.523 10.219-12.133 16.658-22.16 22.216-.802-25.527 9.871-50.537 27.926-66.056l-.008-.026Zm-21.391 155.877a207.993 207.993 0 0 0 2.68-7.382c3.209-5.669 9.113-10.932 18.008-16.139 1.342-.791 2.719-1.564 4.07-2.328 8.441-4.807 17.182-9.764 22.54-18.004 6.215-9.573 6.503-21.323 6.791-32.698l.086-3.173c.167-5.333 2.714-11 5.177-16.467 3.042-6.772 5.917-13.147 4.606-19.062l-.074-.237-.126-.221a4.358 4.358 0 0 1-.26-.467c-.523-1.224-1.451-1.052-1.741-.962-.738.228-.889.766-1.247 2.031l-.349 1.205c-1.916 6.77-8.309 12.039-19.498 16.081-1.143.411-2.259.814-3.436 1.208-7.733 2.711-15.756 5.512-21.091 11.869-6.696 8.019-6.981 18.844-7.259 29.321-.042 1.543-.092 3.06-.15 4.55-.549 13.331-3.403 27.608-8.449 42.447a24.666 24.666 0 0 0-2.793 7.763l2.463.681.052-.016Zm61.568-110.385c-.488 4.018-2.485 8.476-4.573 13.105-2.565 5.701-5.212 11.601-5.391 17.457l-.086 3.173c-.28 11.026-.543 22.393-6.37 31.355-5.024 7.733-13.465 12.539-21.667 17.186a222.157 222.157 0 0 0-4.089 2.362c-6.059 3.55-10.802 7.155-14.319 10.899 3.696-12.488 5.814-24.574 6.277-35.945.05-1.516.1-3.033.134-4.602.268-10.041.553-20.404 6.684-27.729 4.862-5.834 12.55-8.503 19.941-11.109 1.142-.411 2.319-.805 3.462-1.216 10.486-3.795 17.046-8.712 20.023-14.945l-.026.009Z" />
         <path d="M242.261 769.678c.448-.139.822-.514.894-1.027 1.912-11.445 9.43-20.353 17.387-29.802 3.526-4.18 7.151-8.506 10.231-13.01 5.016-7.383 8.332-16.347 11.544-24.99 4.018-10.798 7.821-20.981 14.545-28.258 5.777-6.233 7.715-12 9.288-16.615.27-.805.523-1.576.809-2.328.25-.684-.118-1.407-.775-1.665-.684-.25-1.407.118-1.665.775a64.529 64.529 0 0 0-.819 2.389c-1.573 4.615-3.326 9.862-8.737 15.694-7.071 7.644-11.143 18.545-15.068 29.083-3.166 8.514-6.451 17.295-11.28 24.447-2.99 4.419-6.579 8.676-10.061 12.813-7.831 9.294-15.913 18.897-17.927 31.037-.129.704.363 1.36 1.067 1.488.208.022.409.018.593-.039l-.026.008Z" />
         <path d="M234.328 860.312c.448-.138.796-.506.894-1.027 7.725-44.879 13.549-88.534.298-129.286-13.62-41.85-45.506-74.177-76.343-105.444-8.493-8.599-17.249-17.491-25.465-26.407-38.22-41.507-65.298-82.914-82.716-126.59-.265-.669-1.018-.955-1.668-.725a1.29 1.29 0 0 0-.725 1.667c17.542 43.984 44.78 85.63 83.223 127.387 8.224 8.942 17.015 17.852 25.515 26.477 30.624 31.044 62.289 63.123 75.738 104.42 13.08 40.198 7.29 83.497-.394 128.045a1.272 1.272 0 0 0 1.067 1.488c.217.049.41.018.594-.039l-.018.034Z" />
      </g>
      <g clip-path="url(#awb)">
         <path d="M1430.51 333.99c-5.56-4.491-10.09-9.869-13.36-15.959l-.47-.861.61-.753c10.59-12.875 27.58-21.192 46.68-22.829 15.68-1.34 32.59 1.519 51.68 8.697 2.61.987 5.23 2.018 7.85 3.092 10.19 4.087 20.71 8.293 31.64 8.77l10.11.454-9.82 2.424c-20.68 5.093-29.19 10.263-39.03 16.241-3.86 2.343-7.84 4.744-12.77 7.268-23.41 11.999-53.49 9.302-73.12-6.544Zm-10.29-16.487c3.07 5.401 7.13 10.164 12.13 14.204 18.78 15.159 47.54 17.709 69.96 6.237 4.84-2.471 8.78-4.867 12.58-7.181 8.42-5.117 16.43-9.967 32.41-14.602-8.6-1.569-16.84-4.887-24.89-8.092a331.217 331.217 0 0 0-7.8-3.053c-18.67-7.045-35.18-9.814-50.42-8.521-17.93 1.535-33.93 9.169-44.03 20.993l.06.015ZM1233.93 549.87l-1.06-2.706c29.55-11.655 54.14-30.242 71.18-53.684 20.48-28.249 29.6-63.014 38.38-96.655 3.8-14.504 7.73-29.51 12.53-43.853 4.77-14.208 9.36-24.622 14.98-33.769 6.73-10.976 15.3-20.549 23.61-29.25 22.48-23.623 48.75-46.474 75.96-66.117l1.7 2.373c-27.07 19.516-53.22 42.265-75.54 65.738-8.18 8.599-16.63 18.026-23.22 28.764-5.5 8.957-10.03 19.187-14.71 33.185-4.76 14.251-8.67 29.189-12.46 43.668-8.86 33.894-18.04 68.932-38.85 97.638-17.34 23.919-42.41 42.845-72.47 54.688l-.03-.02Z" />
         <path d="M1170.7 360.434c-3.23-2.608-6.08-5.79-8.33-9.613-1.82-3.07-3.12-6.372-4.38-9.591-1.24-3.131-2.52-6.369-4.23-9.273-6.52-11.005-19.39-17.137-29.68-22.078l-7.28-3.465 8.05.718c12.28 1.088 25.22-1.668 37.73-4.29 17.41-3.678 35.44-7.466 52.48-1.291 8.8 3.169 17.19 9.024 25.71 17.906 11.56 12.022 17.91 24.245 18.89 36.395l.09-.009.12.454c26.06 11.851 43.64 21.788 56.08 37.046 13.87 17.015 18.97 39.273 13.32 58.104l-2.8-.856c5.4-17.916.49-39.128-12.77-55.409-12.03-14.769-29.25-24.5-54.81-36.139-5.32 1.278-10.68 2.849-15.9 4.338-10.81 3.151-22.03 6.412-33.5 7.303-12.55.983-27.84-1.493-38.7-10.259l-.09.009Zm-24.11-40.811c3.76 3.04 7.11 6.59 9.66 10.848 1.84 3.09 3.15 6.435 4.45 9.693 1.22 3.112 2.49 6.306 4.18 9.191 9.12 15.434 29.57 19.58 44.28 18.455 11.17-.857 22.24-4.08 32.89-7.193 4.78-1.398 9.71-2.834 14.67-4.051-.79-11.594-6.89-23.377-18.13-35.056-8.19-8.54-16.25-14.163-24.61-17.179-16.26-5.904-33.85-2.207-50.87 1.385-10.4 2.197-21.09 4.447-31.62 4.571 5.11 2.563 10.41 5.551 15.07 9.316l.03.02Zm319.49-92.779.94-2.254c9.31-22.374 33.49-39.051 61.61-42.516 22.11-2.735 46.12 1.52 75.62 13.382l3.85 1.543-3.95 1.221c-5.81 1.773-9.28 7.117-12.96 12.816-1.38 2.168-2.85 4.434-4.44 6.446-14.98 18.96-42.66 18.404-57.84 16.382-6.37-.852-12.81-2.075-19.05-3.297-13.6-2.635-27.67-5.33-41.31-3.941l-2.44.238-.03-.02Zm133.84-29.994c-27.54-10.673-50.15-14.478-70.92-11.907-26.14 3.254-48.72 18.251-58.28 38.542 13.27-.882 26.69 1.683 39.7 4.203 6.19 1.182 12.61 2.43 18.89 3.247 14.57 1.932 41.07 2.502 55.16-15.297 1.53-1.895 2.91-4.107 4.31-6.232 3.13-4.818 6.33-9.778 11.18-12.56l-.04.004Zm-231.83 194.33c-.61-.491-.95-1.453-.24-2.483.57-.861 1.67-2.421 2.91-4.152 1.93-2.736 4.32-6.1 5.19-7.525 3.22-5.228 8.33-9.325 14.36-11.522 1.24-.443 2.51-.823 3.78-1.203 3.22-.966 6.26-1.844 8.5-3.926l2.52-2.379-.07 3.472c-.09 3.939-.93 7.714-1.44 9.989-.17.707-.29 1.252-.34 1.613-.77 5.277-4.19 10.016-8.94 12.321-2.62 1.3-5.49 1.829-8.05 2.257-2.24.394-5.19 1.22-8.08 2.017-7.23 1.992-9.03 2.34-10.13 1.457l.03.064Zm33.83-26.743c-2.2 1.234-4.63 1.959-7 2.656-1.21.351-2.43.726-3.61 1.14-5.41 1.975-10.01 5.641-12.89 10.3-.93 1.497-3.24 4.764-5.31 7.671-.54.768-1.06 1.512-1.54 2.163 1.66-.378 3.97-1.002 5.83-1.51 2.93-.802 5.97-1.637 8.33-2.065 2.48-.443 5.03-.914 7.29-2.021 3.9-1.904 6.7-5.822 7.35-10.154.06-.429.2-1.042.36-1.837.32-1.544.85-3.843 1.14-6.382l.05.039Z" />
         <path d="M1337.37 415.97c6.87-12.589 19.04-22.99 31.78-27.19l.91 2.788c-12.05 3.95-23.61 13.842-30.13 25.793l-2.56-1.391Zm108.3-189.435.4-5.371c.3-3.851-2.74-10.476-9.01-19.71-4.98-7.351-10.45-15.381-9.82-24.419.72-10.334 9.06-17.972 16.42-24.707l.55-.481c6.29-5.755 14.45-14.574 12.89-24.221l-.62-3.708 2.92 2.353.02-.024c8.35 6.746 11.93 18.22 10.84 34.233a123.664 123.664 0 0 1-21.51 61.641l-3.06 4.434-.02-.02Zm14.47-95.614c-.44 9.438-8.01 17.572-14.02 23.075l-.54.481c-6.94 6.357-14.81 13.568-15.45 22.761-.57 8.009 4.39 15.296 9.16 22.358 5.03 7.434 8.07 13.216 9.17 17.56 10.95-17.042 17.43-36.649 18.82-56.913.92-13.264-1.51-23.129-7.17-29.342l.03.02Zm-98.07 210.014-2.16-1.946c6.84-7.635 16.61-11.629 25.24-15.17 10.53-4.342 22.48-9.258 34.87-8.404l-.19 2.929c-11.72-.792-23.31 3.974-33.59 8.2-8.34 3.421-17.78 7.314-24.17 14.434v-.043Zm-34.8 114.476-1.92-2.193c11.25-9.814 23.95-17.74 37.73-23.473l1.11 2.702a135.412 135.412 0 0 0-36.94 22.989l.02-.025Zm-4.21 10.442-.98-2.759c8.15-2.89 17.39-2.654 26.01.734l-1.07 2.711c-7.97-3.102-16.47-3.349-23.96-.686Zm-50.08-70.879-.18-2.912c17.48-.976 36.11 4.23 51.11 14.287l-1.63 2.417c-14.5-9.733-32.46-14.767-49.32-13.812l.02.02Zm33.29-55.505-1.07-2.95c-4.95-13.792-10.1-28.096-11.14-43.061-1.17-16.837 3.54-32.215 12.95-42.189 3.51-3.705 7.63-6.719 11.67-9.637 2-1.435 3.98-2.889 5.9-4.426 8.09-6.435 15.56-15.091 21.01-24.288l2.77-4.669-.04 5.422c-.1 10.313 2.68 20.584 5.38 30.509 1.02 3.754 2.06 7.64 2.96 11.496 4.27 18.417 3.04 32.513-3.73 43.093-5.62 8.747-14.62 14.237-23.34 19.563-8.79 5.378-17.09 10.437-21.76 18.462l-1.58 2.699.02-.024Zm39.29-120.997c-5.3 7.959-12 15.312-19.13 21.024-1.95 1.562-3.99 3.045-6.01 4.504-3.89 2.835-7.95 5.777-11.26 9.283-8.86 9.381-13.3 23.975-12.19 39.998.96 13.574 5.41 26.754 9.99 39.521 5.22-7.262 13.29-12.186 21.12-16.974 8.45-5.141 17.16-10.466 22.39-18.64 6.32-9.865 7.43-23.26 3.33-40.851-.87-3.793-1.93-7.654-2.93-11.389-2.33-8.587-4.72-17.414-5.33-26.452l.02-.024Z" />
         <path d="M1319.8 405.965a301.761 301.761 0 0 1-11.4-44.832c-1.55-8.915-2.53-17.048-3-24.856l2.91-.178c.49 7.697 1.46 15.742 2.97 24.55 2.58 15.044 6.39 29.957 11.26 44.402l-2.76.938.02-.024Zm100.49-138.246-2.07-2.067a107.358 107.358 0 0 0 28.56-49.737l2.83.719c-4.95 19.356-15.13 37.026-29.32 51.085Zm-59.13 164.053 1.27-1.467c3.51-4.105 8.65-7.34 15.73-9.849 22.63-8.097 48.43-3.878 65.2 10.897l2.57 2.279-3.43.277c-3.44.278-6.77 1.677-9.43 3.869-1.69 1.446-3.08 3.171-4.57 5.017-1.57 1.944-3.19 3.96-5.22 5.619-5.39 4.394-13.56 5.821-21.84 3.795-7.18-1.743-13.56-5.57-19.75-9.283-6.78-4.029-12.77-7.541-18.77-10.342l-1.76-.812Zm77.84-.243c-15.91-12.401-39.28-15.703-59.86-8.314-5.7 2.052-10.06 4.559-13.19 7.602 5.52 2.697 11.06 5.925 17.11 9.521 6.14 3.674 12.33 7.387 19.08 9.021 7.38 1.788 14.6.596 19.3-3.235 1.78-1.455 3.25-3.277 4.78-5.172 1.51-1.871 3.06-3.79 4.97-5.415 2.26-1.906 4.96-3.26 7.81-4.008Zm-83.72 61.26c-2.33-1.883-4.23-4.544-5.82-8.15-2.74-6.146-3.95-13.099-3.37-19.577l.14-1.414 1.4.094c11.33.679 25.46 1.526 36.38 8.82 3.5 2.381 6.41 5.334 8.1 8.506 1.47 2.751 2.15 5.743 2.81 8.648.25 1.127.53 2.23.8 3.333 1.01 3.667 2.76 7.566 5.25 11.541l3 4.831-4.94-2.782c-.87-.506-1.84-1.047-2.81-1.631-5.75-3.361-13.61-7.94-21.09-8.119-.83-.023-1.67-.022-2.54-.041-5.86-.04-11.93-.125-16.75-3.652l-.51-.412-.05.005Zm-6.39-26.028c-.25 5.577.87 11.453 3.23 16.73 1.4 3.18 3.04 5.469 5.01 7.058l.39.314c4.07 2.963 9.67 3.031 15.05 3.079.87.019 1.71.018 2.58.036 7.43.184 14.89 4.118 20.69 7.473-1.3-2.614-2.3-5.149-2.97-7.61-.32-1.142-.57-2.269-.83-3.441-.64-2.84-1.28-5.525-2.53-7.944-1.45-2.732-4.06-5.362-7.15-7.453-9.8-6.592-22.75-7.609-33.47-8.242Zm-147.27-56.006 4.76-3.617c3.11-2.351 6.06-4.42 9.01-6.489l.93-.654c8.68-6.077 17.67-12.342 28.23-15.133 10.65-2.801 21.68-.958 28.8 4.788.75.608 1.46 1.265 2.14 1.97l1.42 1.469-1.84.884c-3.49 1.638-5.58 5.325-7.85 9.23-1.55 2.719-3.18 5.535-5.36 7.832-5.17 5.458-12.78 7.379-19.56 8.569-5.49.941-11.31 1.539-16.47-.663-2.61-1.099-4.9-2.83-7.19-4.518-3.69-2.737-7.21-5.336-11.13-4.651l-5.91 1.007.02-.024Zm69.9-18.846c-6.41-5.177-16.49-6.811-26.21-4.264-10.04 2.647-18.82 8.757-27.31 14.703l-.93.654c-1.86 1.308-3.72 2.616-5.64 3.998 3.26.784 6.13 2.943 8.95 5.018 2.14 1.569 4.32 3.203 6.6 4.159 4.46 1.921 9.78 1.354 14.86.479 6.29-1.093 13.34-2.866 17.91-7.683 1.94-2.05 3.48-4.7 4.96-7.278 2.02-3.502 4.1-7.12 7.32-9.374l-.53-.431.02.019Zm17.11 98.109-1.36-1.098c-7.01-5.98-14.5-13.107-14.64-22.484-.07-5.676 2.64-10.628 5.26-15.459 2.43-4.499 4.73-8.741 4.96-13.45l.15-3.613 2.37 2.722c5.82 6.618 7.53 12.096 9.05 16.93 1.05 3.374 2.05 6.553 4.35 9.771 1.09 1.526 2.14 3.013 2.53 4.814.82 3.754-1.44 7.103-3.76 9.882l-1.79 2.211c-2.47 2.861-4.75 5.591-6.26 8.262l-.86 1.512Zm-3.33-48.867c-.9 4.004-2.89 7.657-4.84 11.261-2.54 4.69-4.95 9.121-4.9 14.022.08 7.607 6.19 13.86 12.32 19.134 1.57-2.387 3.54-4.729 5.63-7.216l1.78-2.211c1.92-2.225 3.75-4.884 3.21-7.402-.24-1.196-1.05-2.331-1.88-3.485-2.74-3.815-3.81-7.209-4.93-10.798-1.3-4.101-2.62-8.335-6.37-13.33l-.02.025Z" />
         <path d="m1268.81 531.362-2.06-2.066c.48-.496 1.69-1.602 2.95-2.713 1.18-1.058 2.37-2.14 2.83-2.611 9.37-9.969 14.64-23.453 14.46-36.955l2.93-.046c.17 14.258-5.4 28.506-15.29 39.019-.52.544-1.76 1.631-2.97 2.737-1.17 1.058-2.37 2.14-2.83 2.611l-.02.024Zm140.73-269.114c-.07-.57-.09-1.19-.06-1.77-.11-1.054-.36-1.737-.83-2.154-.43-.509-1.14-.678-1.76-.9-.53-.187-1.06-.375-1.56-.655-1.9-.974-3.29-2.736-4.26-5.163a16.475 16.475 0 0 1-.81-9.527c.15-.682.34-1.368.54-2.011.22-.823.49-1.651.62-2.509.13-.813.23-2.378-.59-3.401l-3.92-4.932 5.71 2.721c2.6 1.255 5.37 2.048 6.44 2.311 3.4.902 6.12 4.498 6.53 8.606.39 3.6-.69 7.067-1.63 10.12-.74 2.41-1.51 4.957-1.58 7.385.06.571.05 1.171.05 1.726l-2.92.134.03.019Zm-5.13-26.363c.06.683.02 1.42-.1 2.165-.14.97-.42 1.91-.69 2.849-.18.619-.36 1.193-.5 1.807-.57 2.592-.31 5.363.65 7.79.7 1.768 1.63 2.957 2.9 3.665.38.182.8.36 1.21.493.72.257 1.55.568 2.27 1.112.32-1.232.68-2.425 1.04-3.618.85-2.8 1.83-5.946 1.53-8.956-.28-2.878-2.14-5.5-4.4-6.08-.73-.189-2.2-.609-3.91-1.227Z" />
         <path d="M1407.17 276.265a36.071 36.071 0 0 0 2.24-14.16l2.91-.133c.22 5.194-.61 10.5-2.42 15.334l-2.73-1.041Zm11.96 159.048c-8.99.604-18.19-1.767-27.29-3.572-8.79-1.482-18.07-2.513-26.81-.182 9.53-1.128 19.17.996 28.74 2.618 8.82 2.102 17.91 3.507 26.93 1.635 1.24-.199 3.05-.547 3.93-.797-1.83.129-3.64.233-5.5.298Zm-55.73 40.915c-4.7-3.673-9.37-7.726-15.16-9.507 5.04 2.46 9.04 6.652 13.27 10.352 6.34 5.762 14.52 10.396 21.91 13.871-6.83-4.711-13.6-9.495-20.02-14.716Zm-76.99-14.881c-.3 10.511 3.25 20.923 2.74 31.302 2.7-9.414-.96-21.279-2.74-31.302Zm-20.87-67.888c-9.19 1.047-17.01 6.254-24.74 10.165-1.06.512-2.46 1.106-3.34 1.555a47.34 47.34 0 0 0 5.42-1.643c8.83-3.34 17.54-8.31 26.58-9.562 1.71-.183 3.42-.409 5.07.124-2.78-1.323-6.05-.953-8.99-.639Zm184.41-204.437c.81-12.186 2.24-24.351 4.58-36.345-4.25 10.689-6.36 26.766-6.77 39.754-.59 9.232.26 17.667-1.19 26.769 2.99-9.71 2.74-20.097 3.4-30.202l-.02.024Zm-223.27 149.634c10.02 5.881 20.84 13.652 32.1 19.09-23.11-16.164-47.53-35.317-77.17-34.687-5.61-.156-10.42-.021-15.58-.381-.95.035-2.28-.556-2.84.48-.27.584.11 1.254.71 1.413 2.28.6 4.58 1.375 7.33 2.348 4.16 1.354 8.4 2.768 12.81 3.119 6.05.309 12.11-.781 18.12-1.023.77-.06 2.3-.068 2.67-.129-6.12-.768-13.21-.434-18.63-.633-5.31-.277-9.8-1.774-14.5-3.36 6.15.144 11.95.013 18.25.607 13.16 1.194 25.01 6.346 36.66 13.141l.07.015Zm283.91-18.669c-8.55-2.729-17.88-5.886-27.3-7.59-9.91-1.697-20.04-1.571-30.05-.947-5.98.349-11.96 1.098-17.82 2.433-4.95 1.017-9.85 2.517-14.94 2.904 5.28.325 10.52-.7 15.73-1.389 6.88-1.023 13.83-1.831 20.79-2.151 9.9-.479 19.15-.355 29.23 1.567 6.09 1.104 13.85 3.63 19.28 5.204-1.6-.207-3.29-.448-4.82-.596-9.07-.942-18.55-1.174-27.46-.979.56.051 1.13.146 1.69.197 9.39 1.197 18.01 1.898 27.02 2.713 2.51.221 5 .71 7.55.638.46-.027.95-.078 1.36-.345.69-.45.45-1.446-.29-1.722l.03.063Zm76.7-123.7c-9.9.278-19.63 2.249-29.31 4.104-17.45 3.814-34.92 7.609-52.05 12.677-1.16.346-4.06.855-2.62 2.5 1.11.77 2.6.655 3.89.695 8.14-.091 18.94-.887 25.67-2.115-4.74.105-9.51.192-14.26.21-3.66-.031-8.49.284-11.81.172 15.24-3.824 37.19-9.34 56.02-13.036 8.14-1.534 16.35-2.809 24.58-3.709 4.58-.443 9.16-.999 13.64-.145-4.37-1.487-9.15-1.489-13.73-1.377l-.02.024Zm-270.61 118.16c4.43-10.864 7.04-22.687 10.25-33.176 3.38-10.995 7.81-21.659 13.52-31.659.74-1.367 1.02-1.663 1.57-2.699.11-.234.17-.55.05-.805-.64-1.241-1.78-.276-2.41.458-1.89 1.932-3.48 4.056-5.17 6.145-5.52 6.739-10.38 14.008-14.61 21.586-.12.146-.46.871-.35.681 2.61-3.431 5.15-6.877 7.81-10.269 2.65-3.192 5.5-6.914 8.3-10.388-1.64 3.172-3.23 6.583-4.51 9.717-5.75 12.692-8.75 26.887-12.68 39.363-3.13 10.347-7.73 20.118-12.14 29.958 3.69-6.166 7.62-12.181 10.35-18.844l.02-.068Z" />
      </g>
      <defs>
         <clipPath id="awa">
            <path transform="matrix(-.95527 .29574 .29574 .95527 233 414)" d="M0 0h243.88v426.742H0z" />
         </clipPath>
         <clipPath id="awb">
            <path transform="rotate(38.912 682.055 1930.775)" d="M0 0h354.147v509.631H0z" />
         </clipPath>
      </defs>
   </symbol>
   <symbol viewBox="0 0 70 70" id="icon-live-music" xmlns="http://www.w3.org/2000/svg">
      <g clip-path="url(#axa)">
         <path d="M52.392 6.718 36.937 19.93h-2.502a6.678 6.678 0 0 1-4.905-.05l-.115-.046c-2.393-1.023-4.09-3.397-4.09-6.179 0-.49.055-.968.155-1.429l-5.588-10.89A2.457 2.457 0 1 0 15.52 3.58l9.887 19.27v.294l-3.152 24.601c-.145.837.502 1.6 1.345 1.6h1.908V67.05a2.949 2.949 0 1 0 5.898 0V49.345h3.48l7.887 18.844a2.949 2.949 0 1 0 5.44-2.277L41.28 49.345h1.564c.845 0 1.49-.762 1.345-1.6l-5.536-22.764 16.934-14.528a2.458 2.458 0 0 0-3.194-3.735Z" />
         <path d="M32.042 18.748a5.093 5.093 0 1 0 0-10.186 5.093 5.093 0 0 0 0 10.186Zm8.692-8.151c.887 0 2.006-.455 1.847-1.237V3.477L47 1.93v4.74c-.88-.07-2.114.295-2.114 1.092 0 .61.833 1.103 1.86 1.103 1.029 0 1.862-.494 1.862-1.103h.029V.924a.924.924 0 0 0-1.23-.871L41.6 2.086a.98.98 0 0 0-.656.925v5.387c-.861-.057-2.071.309-2.071 1.096 0 .609.833 1.103 1.861 1.103Zm18.732 12.56v6.083c-.86-.058-2.07.309-2.07 1.096 0 .609.833 1.103 1.86 1.103.887 0 2.007-.455 1.847-1.237v-5.884l1.283-.449a1.637 1.637 0 0 0 1.005-2.085l-3.925 1.373ZM5.542 12.884v6.082c-.86-.057-2.07.31-2.07 1.096 0 .61.833 1.103 1.861 1.103.886 0 2.006-.455 1.846-1.236v-5.884l1.284-.449a1.637 1.637 0 0 0 1.004-2.085l-3.925 1.373Zm54.397-9.38c.498.272.908.682 1.18 1.18a.28.28 0 0 0 .489 0 2.956 2.956 0 0 1 1.18-1.18.28.28 0 0 0 0-.49 2.953 2.953 0 0 1-1.18-1.179.28.28 0 0 0-.49 0 2.955 2.955 0 0 1-1.18 1.18.28.28 0 0 0 0 .49ZM3.851 11.226a2.954 2.954 0 0 1 1.18-1.18.28.28 0 0 0 0-.489 2.955 2.955 0 0 1-1.18-1.18.28.28 0 0 0-.49 0 2.957 2.957 0 0 1-1.18 1.18.28.28 0 0 0 0 .49c.5.271.91.681 1.18 1.18a.28.28 0 0 0 .49 0ZM66.032 9.5a2.314 2.314 0 0 1-.924-.925.219.219 0 0 0-.383 0c-.213.39-.534.712-.924.924a.219.219 0 0 0 0 .383c.39.213.711.534.924.924.082.152.3.152.383 0 .213-.39.534-.71.924-.924a.219.219 0 0 0 0-.383ZM11.2 6.138a2.314 2.314 0 0 1-.923-.924.219.219 0 0 0-.383 0 2.32 2.32 0 0 1-.924.924.219.219 0 0 0 0 .383c.39.213.711.534.924.924.082.151.3.151.383 0a2.32 2.32 0 0 1 .924-.924.219.219 0 0 0 0-.383Zm56.681-1.974a1.648 1.648 0 0 1-.658-.658.156.156 0 0 0-.273 0 1.65 1.65 0 0 1-.658.658.156.156 0 0 0 0 .273c.278.151.506.38.658.658a.156.156 0 0 0 .273 0 1.64 1.64 0 0 1 .658-.658.156.156 0 0 0 0-.273Zm-64.12.114c.278.151.507.38.659.658a.156.156 0 0 0 .272 0 1.65 1.65 0 0 1 .659-.658.156.156 0 0 0 0-.273 1.648 1.648 0 0 1-.659-.659.156.156 0 0 0-.272 0c-.152.278-.38.507-.659.659a.156.156 0 0 0 0 .273Z" />
      </g>
      <defs>
         <clipPath id="axa">
            <path d="M0 0h70v70H0z" />
         </clipPath>
      </defs>
   </symbol>
   <symbol viewBox="0 0 70 70" id="icon-lotus" xmlns="http://www.w3.org/2000/svg">
      <g clip-path="url(#aya)">
         <path d="M69.4 50.73a25.596 25.596 0 0 0-3.152-2.68 32.237 32.237 0 0 1-8.282 6.841 32.405 32.405 0 0 1-15.979 4.336 25.32 25.32 0 0 0 9.488 1.829c6.77 0 13.137-2.637 17.924-7.425a2.05 2.05 0 0 0 0-2.901ZM3.752 48.05a25.621 25.621 0 0 0-3.151 2.68 2.054 2.054 0 0 0 0 2.901c4.787 4.788 11.153 7.425 17.924 7.425 3.305 0 6.512-.63 9.488-1.83a32.404 32.404 0 0 1-15.98-4.335 32.23 32.23 0 0 1-8.28-6.841Zm10.332 3.289a28.375 28.375 0 0 0 11.599 3.671 34.345 34.345 0 0 1-13.106-12.87 34.2 34.2 0 0 1-4.11-11.405c-2.04.088-4.071.392-6.047.917A2.053 2.053 0 0 0 .917 34.18C3.01 41.992 8.125 47.9 14.084 51.339Zm30.233 3.671a28.377 28.377 0 0 0 11.6-3.671c5.958-3.44 11.072-9.347 13.167-17.16a2.053 2.053 0 0 0-1.503-2.527 28.26 28.26 0 0 0-6.047-.917 34.196 34.196 0 0 1-4.11 11.406 34.329 34.329 0 0 1-13.107 12.87Zm-18.71-4.841a35.183 35.183 0 0 1-5.29-18.58 35 35 0 0 1 2.453-12.925 30.214 30.214 0 0 0-7.147-2.943 2.05 2.05 0 0 0-2.511 1.45c-2.239 8.35-.66 16.552 3.016 22.919a30.349 30.349 0 0 0 9.48 10.079Zm18.783.001a30.348 30.348 0 0 0 9.481-10.08c3.676-6.367 5.255-14.568 3.017-22.919a2.05 2.05 0 0 0-2.512-1.45 30.206 30.206 0 0 0-7.147 2.944 35.002 35.002 0 0 1 2.453 12.923A35.18 35.18 0 0 1 44.39 50.17ZM36.45 9.545a2.054 2.054 0 0 0-2.901 0c-5.372 5.371-9.13 13.125-9.13 22.043 0 8.922 3.763 16.676 9.13 22.043a2.054 2.054 0 0 0 2.901 0c5.366-5.365 9.13-13.12 9.13-22.043 0-8.922-3.76-16.675-9.13-22.043Z" />
      </g>
      <defs>
         <clipPath id="aya">
            <path d="M0 0h70v70H0z" />
         </clipPath>
      </defs>
   </symbol>
   <symbol viewBox="0 0 100 100" id="icon-play" xmlns="http://www.w3.org/2000/svg">
      <g clip-path="url(#aza)">
         <path fill-rule="evenodd" clip-rule="evenodd" d="M44.852 10.298c24.77 0 44.851 20.08 44.851 44.85C89.703 79.92 69.623 100 44.852 100 20.082 100 .001 79.92.001 55.149c0-24.77 20.08-44.851 44.851-44.851Z" fill="#AAD5EE"/>
         <path fill-rule="evenodd" clip-rule="evenodd" d="M71.294 3.994C67.388 2.085 59.584-.668 51.555.147 45.222.79 38.723 3.407 34.137 5.92a44.872 44.872 0 0 0-4.8 3.046 41.88 41.88 0 0 1-3.147 2.072c-1.372.812-3.375 2.096-5.191 3.642-1.307 1.112-2.507 2.5-3.335 3.544-.644.812-1.788 2.022-2.922 3.162-1.902 1.912-4.805 5.354-5.986 9.518-1.124 3.965-.742 8.562-.265 11.574.184 1.162.703 2.361.862 3.357.15.934-.056 1.681.01 2.269.535 4.777 2.35 15.768 8.152 23.511 3.039 4.055 7.193 8.67 11.048 11.049a28.956 28.956 0 0 0 7.043 3.142c1.47.43 3.464.493 4.802.84 1.18.305 2.06.898 2.886 1.194 3.694 1.321 9.708 3.36 15.428 4.08 2.456.31 7.879.318 12.143-1.492 3.217-1.367 5.906-3.514 7.423-4.882.433-.39.766-.924 1.236-1.29.499-.388 1.134-.606 1.615-.925 2.352-1.563 7.048-5.179 11.225-11.417 2.615-3.908 5.511-10.916 6.668-15.528 3.716-14.817-4.479-31.653-4.479-31.653s-2.58-7.31-8.162-12.542c-2.879-2.698-6.987-4.658-9.683-5.754-1.651-.671-3.723-1.617-5.414-2.443Z" fill="#F5BCD0"/>
         <path fill-rule="evenodd" clip-rule="evenodd" d="M89.703 55.149c0 12.679-5.263 24.127-13.72 32.285-1.419 1.053-3.17 2.166-5.118 2.993-4.264 1.81-9.686 1.803-12.143 1.493-5.72-.72-11.734-2.759-15.428-4.08-.825-.296-1.706-.89-2.886-1.195-1.338-.346-3.332-.409-4.802-.839a28.956 28.956 0 0 1-7.043-3.142c-3.855-2.38-8.01-6.994-11.048-11.05-5.802-7.742-7.617-18.733-8.152-23.51-.066-.588.14-1.335-.01-2.27-.159-.995-.678-2.194-.862-3.356-.477-3.012-.859-7.609.265-11.574.653-2.3 1.831-4.38 3.076-6.105 8.197-8.913 19.955-14.501 33.02-14.501 24.77 0 44.851 20.08 44.851 44.85Z" fill="#9C9EBD"/>
         <path d="M65.501 47.67c3.333 1.924 3.333 6.736 0 8.66l-22.5 12.99c-3.333 1.925-7.5-.48-7.5-4.33V39.01c0-3.85 4.167-6.255 7.5-4.33l22.5 12.99Z" fill="white"/>
      </g>
      <defs>
         <clipPath id="aza">
            <path transform="translate(.001)" d="M0 0h99.998v100H0z" />
         </clipPath>
      </defs>
   </symbol>
   <symbol viewBox="0 0 20 20" id="icon-present" xmlns="http://www.w3.org/2000/svg">
      <path d="M1.667 12.5h7.5V20H5.833a4.167 4.167 0 0 1-4.166-4.167V12.5ZM20 9.167a1.667 1.667 0 0 1-1.667 1.666h-7.5V7.464c-.28.022-.559.036-.833.036-.274 0-.553-.014-.833-.036v3.37h-7.5A1.667 1.667 0 0 1 0 9.166a3.333 3.333 0 0 1 3.333-3.334h1.449A4.28 4.28 0 0 1 3.333 2.5.833.833 0 0 1 5 2.5c0 2.185 1.976 2.942 3.478 3.2A7.777 7.777 0 0 1 7.5 2.5a2.5 2.5 0 1 1 5 0 7.777 7.777 0 0 1-.978 3.2C13.024 5.443 15 4.686 15 2.5a.833.833 0 1 1 1.667 0 4.281 4.281 0 0 1-1.449 3.333h1.449A3.333 3.333 0 0 1 20 9.167ZM9.167 2.5c.1.886.384 1.74.833 2.51.449-.77.733-1.624.833-2.51a.834.834 0 0 0-1.666 0ZM10.833 20h3.334a4.167 4.167 0 0 0 4.166-4.167V12.5h-7.5V20Z" />
   </symbol>
   <symbol viewBox="0 0 62 66" id="icon-secutiry" xmlns="http://www.w3.org/2000/svg">
      <path d="M61.24 12.42c-.14-2.1-2.1-3.64-4.2-3.36-11.34 1.54-19.74-4.2-23.66-7.7-1.4-1.26-3.5-1.26-4.76 0C24.7 4.72 16.3 10.6 4.96 9.06 2.86 8.78.9 10.32.76 12.42.2 23.9 1.04 56.1 31 65.62c29.96-9.52 30.94-41.72 30.24-53.2ZM31 50.08c-9.52 0-17.08-7.7-17.08-17.08 0-9.38 7.56-17.08 17.08-17.08S48.08 23.48 48.08 33 40.52 50.08 31 50.08Z" />
      <path d="M27.64 28.66c0-1.12.56-1.96 1.26-2.66.56-.42 1.26-.7 1.96-.7 1.54 0 3.36 1.26 3.36 3.36v2.66H27.5v-2.66h.14Zm10.22 3.92c-.28-.42-.56-.7-.98-.98-.28-.14-.56-.28-.84-.28v-2.66c0-2.38-1.96-5.04-5.04-5.04-2.8 0-5.04 2.24-5.04 5.04v2.66c-.28 0-.56.14-.84.28-.42.28-.84.56-1.12.98-.28.42-.28.84-.28 1.26v5.88c0 1.54 1.26 2.52 2.52 2.52h9.52c.56 0 .98-.14 1.4-.42.42-.28.7-.42.84-.84.28-.42.42-.84.42-1.4V33.7c-.14-.28-.28-.7-.56-1.12Zm-6.16 4.34.14 1.12c0 .42-.28.7-.7.7h-.42c-.42 0-.7-.28-.7-.7l.14-1.12c-.42-.28-.56-.7-.56-1.12 0-.7.56-1.26 1.26-1.26s1.26.56 1.26 1.26c.14.42 0 .84-.42 1.12Z" />
   </symbol>
   <symbol viewBox="0 0 31 30" id="icon-star" xmlns="http://www.w3.org/2000/svg">
      <g filter="url(#bca)">
         <circle cx="15.5" cy="15" r="15" fill-opacity=".8" />
         <circle cx="15.5" cy="15" r="14.437" />
      </g>
      <path d="M15.134 8.649c.21-.645 1.122-.645 1.331 0l1.13 3.479a.7.7 0 0 0 .667.483h3.657c.678 0 .96.868.412 1.266l-2.96 2.15a.7.7 0 0 0-.254.783l1.13 3.48c.21.644-.528 1.18-1.077.782l-2.959-2.15a.7.7 0 0 0-.823 0l-2.96 2.15c-.548.398-1.286-.138-1.076-.783l1.13-3.479a.7.7 0 0 0-.254-.782l-2.96-2.15c-.548-.4-.266-1.267.412-1.267h3.658a.7.7 0 0 0 .666-.484l1.13-3.478Z" />
      <defs>
         <filter id="bca" x="-16.382" y="-16.882" width="63.764" height="63.764" filterUnits="userSpaceOnUse" color-interpolation-filters="sRGB">
            <feFlood flood-opacity="0" result="BackgroundImageFix" />
            <feGaussianBlur in="BackgroundImageFix" stdDeviation="8.441" />
            <feComposite in2="SourceAlpha" operator="in" result="effect1_backgroundBlur_1002_6721" />
            <feBlend in="SourceGraphic" in2="effect1_backgroundBlur_1002_6721" result="shape" />
         </filter>
      </defs>
   </symbol>
   <symbol viewBox="0 0 70 70" id="icon-success" xmlns="http://www.w3.org/2000/svg">
      <g clip-path="url(#bda)">
         <path d="M68.867 8.409 52.46.206c-.02-.01-.04-.007-.06-.016-1.29-.6-2.854.282-2.895 1.79-.001.02-.013.039-.013.06V24.6h-26.66a6.16 6.16 0 0 0-6.152 6.152 6.16 6.16 0 0 0 6.152 6.152h41.016a2.05 2.05 0 1 0 0-4.101h-2.051a2.052 2.052 0 0 1 0-4.102h2.05a2.05 2.05 0 1 0 0-4.102H53.595v-4.884l15.273-7.636a2.05 2.05 0 0 0 0-3.67Zm-23.75 53.377h2.051a2.05 2.05 0 1 0 0-4.101H6.152A6.16 6.16 0 0 0 0 63.837a6.16 6.16 0 0 0 6.152 6.152h41.016a2.05 2.05 0 1 0 0-4.101h-2.05a2.052 2.052 0 0 1 0-4.102ZM53.32 45.38h2.051a2.05 2.05 0 1 0 0-4.102H14.355a6.16 6.16 0 0 0-6.152 6.153 6.16 6.16 0 0 0 6.152 6.152h41.016a2.05 2.05 0 1 0 0-4.102h-2.05a2.052 2.052 0 0 1 0-4.101Z" />
      </g>
      <defs>
         <clipPath id="bda">
            <path d="M0 0h70v70H0z" />
         </clipPath>
      </defs>
   </symbol>
   <symbol viewBox="0 0 20 20" id="icon-target" xmlns="http://www.w3.org/2000/svg">
      <g clip-path="url(#bea)">
         <path d="M10.422 9.597c-.003-.003-.004-.008-.008-.011L7.07 6.242V4.14a.586.586 0 0 0-.171-.415L3.383.172a.586.586 0 0 0-1 .414v1.758H.586a.585.585 0 0 0-.414 1l3.554 3.555c.11.11.26.171.415.171h2.1l3.345 3.344c.003.004.008.005.011.008.228.217.575.22.806 0a.577.577 0 0 0 .019-.825Z" />
         <path d="M10 0C8.5 0 7.083.381 5.807.977l1.797 1.798A7.575 7.575 0 0 1 10 2.383c4.2 0 7.617 3.417 7.617 7.617S14.2 17.617 10 17.617 2.383 14.2 2.383 10c0-.838.14-1.642.392-2.396L.977 5.807C.381 7.083 0 8.5 0 10c0 5.492 4.507 10 10 10 5.492 0 10-4.508 10-10 0-5.493-4.508-10-10-10Z" />
         <path d="M10 4.727c-.62 0-1.205.127-1.758.324v.706L9.597 7.11c.133-.018.265-.04.403-.04A2.933 2.933 0 0 1 12.93 10 2.933 2.933 0 0 1 10 12.93 2.933 2.933 0 0 1 7.07 10c0-.138.022-.27.041-.403L5.757 8.242H5.05A5.212 5.212 0 0 0 4.727 10 5.28 5.28 0 0 0 10 15.273 5.28 5.28 0 0 0 15.273 10 5.28 5.28 0 0 0 10 4.727Z" />
      </g>
      <defs>
         <clipPath id="bea">
            <path d="M0 0h20v20H0z" />
         </clipPath>
      </defs>
   </symbol>
   <symbol viewBox="0 0 70 70" id="icon-thunderbolt" xmlns="http://www.w3.org/2000/svg">
      <g clip-path="url(#bfa)">
         <path d="M35 10.083a2.188 2.188 0 0 1-2.188-2.188V2.188a2.188 2.188 0 0 1 4.376 0v5.707c0 1.208-.98 2.188-2.188 2.188Zm19.165 7.939a2.188 2.188 0 0 1-1.546-3.736l4.037-4.037a2.188 2.188 0 1 1 3.095 3.095l-4.037 4.036a2.189 2.189 0 0 1-1.549.642Zm13.647 19.166h-5.705a2.188 2.188 0 0 1 0-4.376h5.705a2.188 2.188 0 0 1 0 4.376Zm-9.61 23.202a2.17 2.17 0 0 1-1.546-.642L52.62 55.71a2.188 2.188 0 1 1 3.094-3.094l4.037 4.036a2.188 2.188 0 0 1-1.549 3.737ZM35 70a2.188 2.188 0 0 1-2.188-2.188v-5.707a2.188 2.188 0 0 1 4.376 0v5.708C37.188 69.02 36.208 70 35 70Zm-23.202-9.61a2.188 2.188 0 0 1-1.546-3.736l4.037-4.037a2.188 2.188 0 1 1 3.095 3.094l-4.037 4.037a2.181 2.181 0 0 1-1.549.642ZM7.893 37.188H2.188a2.188 2.188 0 0 1 0-4.376h5.704a2.188 2.188 0 0 1 0 4.376Zm7.942-19.166a2.17 2.17 0 0 1-1.546-.642l-4.037-4.036a2.188 2.188 0 1 1 3.095-3.095l4.037 4.037a2.188 2.188 0 0 1-1.55 3.736ZM32.204 54a1.778 1.778 0 0 1-1.765-2.014l1.936-14.611h-7.47c-.67 0-1.284-.378-1.588-.976a1.778 1.778 0 0 1 .152-1.858L36.53 16.73a1.772 1.772 0 0 1 2.128-.59 1.782 1.782 0 0 1 1.067 1.934L37.698 30.25h7.395a1.78 1.78 0 0 1 1.501 2.74L33.705 53.178a1.779 1.779 0 0 1-1.5.822Z" />
      </g>
      <defs>
         <clipPath id="bfa">
            <path d="M0 0h70v70H0z" />
         </clipPath>
      </defs>
   </symbol>
   <symbol viewBox="0 0 20 20" id="icon-to-do-list" xmlns="http://www.w3.org/2000/svg">
      <path d="M17.104 1.687a1.743 1.743 0 0 0-1.243-.515h-.779v.781c0 .862-.7 1.563-1.56 1.563H6.497c-.86 0-1.56-.701-1.56-1.563v-.781h-.782A1.76 1.76 0 0 0 2.4 2.928L2.383 18.24A1.754 1.754 0 0 0 4.139 20h11.705a1.76 1.76 0 0 0 1.756-1.756l.017-15.312c0-.47-.182-.912-.513-1.245Zm-6.905 5.344h4.158a.586.586 0 0 1 0 1.172H10.2a.586.586 0 0 1 0-1.172Zm0 3.907h4.158a.586.586 0 0 1 0 1.171H10.2a.586.586 0 0 1 0-1.171Zm0 3.906h4.175a.586.586 0 0 1 0 1.172h-4.175a.586.586 0 0 1 0-1.172Zm-4.987-7.79a.585.585 0 0 1 .828 0l.318.319 1.35-1.351a.585.585 0 1 1 .828.828L6.772 8.616a.585.585 0 0 1-.828 0l-.732-.733a.586.586 0 0 1 0-.829Zm0 4.205a.585.585 0 0 1 .828 0l.318.319 1.35-1.352a.585.585 0 1 1 .828.829L6.772 12.82a.585.585 0 0 1-.828 0l-.732-.732a.586.586 0 0 1 0-.83Zm0 3.906a.585.585 0 0 1 .828 0l.318.319 1.35-1.351a.585.585 0 1 1 .828.828l-1.764 1.766a.585.585 0 0 1-.828 0l-.732-.733a.586.586 0 0 1 0-.829Z" />
      <path d="M6.107 1.953c0 .216.175.39.39.39h7.024a.39.39 0 0 0 .39-.39V.391a.39.39 0 0 0-.39-.391H6.498a.39.39 0 0 0-.39.39v1.563Z" />
   </symbol>
   <symbol viewBox="0 0 1920 52" id="icon-waves" xmlns="http://www.w3.org/2000/svg">
      <path d="M0 34.61s113.409-15.562 186.75-16.35c73.159-.788 113.594 11.313 186.75 12.262C507.546 32.26 581.224-5.248 715 1.909c88.863 4.755 115 49.05 184.5 32.7 12.162-2.861 38.958-13.663 65.5-16.35 41.55-4.206 85.6 8.794 106 13.08 76 15.97 157.35-30.202 293-21.255 87.04 5.741 132.69 31.254 220 32.7 98.27 1.628 150.97-42.684 248.5-32.7 34.78 3.56 87.5 16.35 87.5 16.35" />
      <path d="M1920 18.26s-113.41 17.138-186.75 16.35c-73.16-.788-113.59-13.212-186.75-12.263-134.05 1.738-207.72-19.42-341.5-12.263-88.86 4.755-114.2 1.94-184.5 16.35-25.942 5.318-39.121 12.746-65.5 16.35-40.858 5.583-85.603-7.556-106-3.27C773 55.484 691.646-7.038 556 1.91c-87.041 5.74-132.694 47.603-220 49.05-98.274 1.627-150.967-45.955-248.5-35.97C52.72 18.55 0 18.26 0 18.26" />
   </symbol>
   <symbol viewBox="0 0 70 70" id="icon-yoga" xmlns="http://www.w3.org/2000/svg">
      <g clip-path="url(#bia)">
         <path d="M35 20.508c5.663 0 10.254-4.591 10.254-10.254C45.254 4.59 40.664 0 35 0c-5.663 0-10.254 4.59-10.254 10.254 0 5.663 4.59 10.254 10.254 10.254Zm30.761 41.289c0-4.52-3.666-8.2-8.307-8.2h-.01c-3.288.215-21.048 8.93-27.667 12.554L22.743 70h34.815c4.525 0 8.203-3.679 8.203-8.203Zm-.768-15.957c-6.231-4.984-8.1-10.64-9.485-17.721a7.611 7.611 0 0 0-7.611-7.611H22.103a7.611 7.611 0 0 0-7.61 7.61c-1.345 6.869-3.076 12.595-9.486 17.721L0 49.492h6.29c6.748 0 13.453-3.234 17.78-8.265l2.29 13.444a326.72 326.72 0 0 1 8.633 4.184 340.006 340.006 0 0 1 8.648-4.208l2.518-14.233c4.346 5.704 10.71 9.078 17.552 9.078H70l-5.007-3.653Zm-52.437 7.758h-.01c-4.64 0-8.308 3.679-8.308 8.199 0 4.524 3.68 8.203 8.203 8.203h1.094l16.941-8.842c-7.382-3.62-15.763-7.42-17.92-7.56Z" />
      </g>
      <defs>
         <clipPath id="bia">
            <path d="M0 0h70v70H0z" />
         </clipPath>
      </defs>
   </symbol>
</svg>